<?xml version="1.0" encoding="utf-8" standalone="no"?>
<!DOCTYPE svg PUBLIC "-//W3C//DTD SVG 1.1//EN"
  "http://www.w3.org/Graphics/SVG/1.1/DTD/svg11.dtd">
<!-- Created with matplotlib (https://matplotlib.org/) -->
<svg height="1440pt" version="1.1" viewBox="0 0 1440 1440" width="1440pt" xmlns="http://www.w3.org/2000/svg" xmlns:xlink="http://www.w3.org/1999/xlink">
 <defs>
  <style type="text/css">
*{stroke-linecap:butt;stroke-linejoin:round;white-space:pre;}
  </style>
 </defs>
 <g id="figure_1">
  <g id="patch_1">
   <path d="M 0 1440 
L 1440 1440 
L 1440 0 
L 0 0 
z
" style="fill:#ffffff;"/>
  </g>
  <g id="axes_1">
   <g id="LineCollection_1">
    <path clip-path="url(#pcf134829a2)" d="M 1241.639911 727.2 
L 1237.668571 664.364243 
" style="fill:none;stroke:#008000;"/>
    <path clip-path="url(#pcf134829a2)" d="M 1241.639911 727.2 
L 1225.81714 602.519435 
" style="fill:none;stroke:#008000;"/>
    <path clip-path="url(#pcf134829a2)" d="M 1241.639911 727.2 
L 1206.272548 542.640936 
" style="fill:none;stroke:#008000;"/>
    <path clip-path="url(#pcf134829a2)" d="M 1241.639911 727.2 
L 1179.343005 485.67301 
" style="fill:none;stroke:#008000;"/>
    <path clip-path="url(#pcf134829a2)" d="M 1241.639911 727.2 
L 1145.453251 432.51415 
" style="fill:none;stroke:#008000;"/>
    <path clip-path="url(#pcf134829a2)" d="M 1241.639911 727.2 
L 1105.137691 384.002626 
" style="fill:none;stroke:#008000;"/>
    <path clip-path="url(#pcf134829a2)" d="M 1241.639911 727.2 
L 1059.032163 340.903558 
" style="fill:none;stroke:#008000;"/>
    <path clip-path="url(#pcf134829a2)" d="M 1241.639911 727.2 
L 1007.863733 303.896599 
" style="fill:none;stroke:#008000;"/>
    <path clip-path="url(#pcf134829a2)" d="M 1241.639911 727.2 
L 952.439455 273.565388 
" style="fill:none;stroke:#008000;"/>
    <path clip-path="url(#pcf134829a2)" d="M 1241.639911 727.2 
L 893.633281 250.38826 
" style="fill:none;stroke:#008000;"/>
    <path clip-path="url(#pcf134829a2)" d="M 1237.668571 664.364243 
L 1225.81714 602.519435 
" style="fill:none;stroke:#008000;"/>
    <path clip-path="url(#pcf134829a2)" d="M 1237.668571 664.364243 
L 1206.272548 542.640936 
" style="fill:none;stroke:#008000;"/>
    <path clip-path="url(#pcf134829a2)" d="M 1237.668571 664.364243 
L 1179.343005 485.67301 
" style="fill:none;stroke:#008000;"/>
    <path clip-path="url(#pcf134829a2)" d="M 1237.668571 664.364243 
L 1145.453251 432.51415 
" style="fill:none;stroke:#008000;"/>
    <path clip-path="url(#pcf134829a2)" d="M 1237.668571 664.364243 
L 1105.137691 384.002626 
" style="fill:none;stroke:#008000;"/>
    <path clip-path="url(#pcf134829a2)" d="M 1237.668571 664.364243 
L 1059.032163 340.903558 
" style="fill:none;stroke:#008000;"/>
    <path clip-path="url(#pcf134829a2)" d="M 1237.668571 664.364243 
L 1007.863733 303.896599 
" style="fill:none;stroke:#008000;"/>
    <path clip-path="url(#pcf134829a2)" d="M 1237.668571 664.364243 
L 952.439455 273.565388 
" style="fill:none;stroke:#008000;"/>
    <path clip-path="url(#pcf134829a2)" d="M 1237.668571 664.364243 
L 893.633281 250.38826 
" style="fill:none;stroke:#008000;"/>
    <path clip-path="url(#pcf134829a2)" d="M 1237.668571 664.364243 
L 832.372722 234.730769 
" style="fill:none;stroke:#008000;"/>
    <path clip-path="url(#pcf134829a2)" d="M 1225.81714 602.519435 
L 1206.272548 542.640936 
" style="fill:none;stroke:#008000;"/>
    <path clip-path="url(#pcf134829a2)" d="M 1225.81714 602.519435 
L 1179.343005 485.67301 
" style="fill:none;stroke:#008000;"/>
    <path clip-path="url(#pcf134829a2)" d="M 1225.81714 602.519435 
L 1145.453251 432.51415 
" style="fill:none;stroke:#008000;"/>
    <path clip-path="url(#pcf134829a2)" d="M 1225.81714 602.519435 
L 1105.137691 384.002626 
" style="fill:none;stroke:#008000;"/>
    <path clip-path="url(#pcf134829a2)" d="M 1225.81714 602.519435 
L 1059.032163 340.903558 
" style="fill:none;stroke:#008000;"/>
    <path clip-path="url(#pcf134829a2)" d="M 1225.81714 602.519435 
L 1007.863733 303.896599 
" style="fill:none;stroke:#008000;"/>
    <path clip-path="url(#pcf134829a2)" d="M 1225.81714 602.519435 
L 952.439455 273.565388 
" style="fill:none;stroke:#008000;"/>
    <path clip-path="url(#pcf134829a2)" d="M 1225.81714 602.519435 
L 893.633281 250.38826 
" style="fill:none;stroke:#008000;"/>
    <path clip-path="url(#pcf134829a2)" d="M 1225.81714 602.519435 
L 832.372722 234.730769 
" style="fill:none;stroke:#008000;"/>
    <path clip-path="url(#pcf134829a2)" d="M 1225.81714 602.519435 
L 769.623801 226.839778 
" style="fill:none;stroke:#008000;"/>
    <path clip-path="url(#pcf134829a2)" d="M 1206.272548 542.640936 
L 1179.343005 485.67301 
" style="fill:none;stroke:#008000;"/>
    <path clip-path="url(#pcf134829a2)" d="M 1206.272548 542.640936 
L 1145.453251 432.51415 
" style="fill:none;stroke:#008000;"/>
    <path clip-path="url(#pcf134829a2)" d="M 1206.272548 542.640936 
L 1105.137691 384.002626 
" style="fill:none;stroke:#008000;"/>
    <path clip-path="url(#pcf134829a2)" d="M 1206.272548 542.640936 
L 1059.032163 340.903558 
" style="fill:none;stroke:#008000;"/>
    <path clip-path="url(#pcf134829a2)" d="M 1206.272548 542.640936 
L 1007.863733 303.896599 
" style="fill:none;stroke:#008000;"/>
    <path clip-path="url(#pcf134829a2)" d="M 1206.272548 542.640936 
L 952.439455 273.565388 
" style="fill:none;stroke:#008000;"/>
    <path clip-path="url(#pcf134829a2)" d="M 1206.272548 542.640936 
L 893.633281 250.38826 
" style="fill:none;stroke:#008000;"/>
    <path clip-path="url(#pcf134829a2)" d="M 1206.272548 542.640936 
L 832.372722 234.730769 
" style="fill:none;stroke:#008000;"/>
    <path clip-path="url(#pcf134829a2)" d="M 1206.272548 542.640936 
L 769.623801 226.839778 
" style="fill:none;stroke:#008000;"/>
    <path clip-path="url(#pcf134829a2)" d="M 1206.272548 542.640936 
L 706.376214 226.839778 
" style="fill:none;stroke:#008000;"/>
    <path clip-path="url(#pcf134829a2)" d="M 1179.343005 485.67301 
L 1145.453251 432.51415 
" style="fill:none;stroke:#008000;"/>
    <path clip-path="url(#pcf134829a2)" d="M 1179.343005 485.67301 
L 1105.137691 384.002626 
" style="fill:none;stroke:#008000;"/>
    <path clip-path="url(#pcf134829a2)" d="M 1179.343005 485.67301 
L 1059.032163 340.903558 
" style="fill:none;stroke:#008000;"/>
    <path clip-path="url(#pcf134829a2)" d="M 1179.343005 485.67301 
L 1007.863733 303.896599 
" style="fill:none;stroke:#008000;"/>
    <path clip-path="url(#pcf134829a2)" d="M 1179.343005 485.67301 
L 952.439455 273.565388 
" style="fill:none;stroke:#008000;"/>
    <path clip-path="url(#pcf134829a2)" d="M 1179.343005 485.67301 
L 893.633281 250.38826 
" style="fill:none;stroke:#008000;"/>
    <path clip-path="url(#pcf134829a2)" d="M 1179.343005 485.67301 
L 832.372722 234.730769 
" style="fill:none;stroke:#008000;"/>
    <path clip-path="url(#pcf134829a2)" d="M 1179.343005 485.67301 
L 769.623801 226.839778 
" style="fill:none;stroke:#008000;"/>
    <path clip-path="url(#pcf134829a2)" d="M 1179.343005 485.67301 
L 706.376214 226.839778 
" style="fill:none;stroke:#008000;"/>
    <path clip-path="url(#pcf134829a2)" d="M 1179.343005 485.67301 
L 643.627293 234.730769 
" style="fill:none;stroke:#008000;"/>
    <path clip-path="url(#pcf134829a2)" d="M 1145.453251 432.51415 
L 1105.137691 384.002626 
" style="fill:none;stroke:#008000;"/>
    <path clip-path="url(#pcf134829a2)" d="M 1145.453251 432.51415 
L 1059.032163 340.903558 
" style="fill:none;stroke:#008000;"/>
    <path clip-path="url(#pcf134829a2)" d="M 1145.453251 432.51415 
L 1007.863733 303.896599 
" style="fill:none;stroke:#008000;"/>
    <path clip-path="url(#pcf134829a2)" d="M 1145.453251 432.51415 
L 952.439455 273.565388 
" style="fill:none;stroke:#008000;"/>
    <path clip-path="url(#pcf134829a2)" d="M 1145.453251 432.51415 
L 893.633281 250.38826 
" style="fill:none;stroke:#008000;"/>
    <path clip-path="url(#pcf134829a2)" d="M 1145.453251 432.51415 
L 832.372722 234.730769 
" style="fill:none;stroke:#008000;"/>
    <path clip-path="url(#pcf134829a2)" d="M 1145.453251 432.51415 
L 769.623801 226.839778 
" style="fill:none;stroke:#008000;"/>
    <path clip-path="url(#pcf134829a2)" d="M 1145.453251 432.51415 
L 706.376214 226.839778 
" style="fill:none;stroke:#008000;"/>
    <path clip-path="url(#pcf134829a2)" d="M 1145.453251 432.51415 
L 643.627293 234.730769 
" style="fill:none;stroke:#008000;"/>
    <path clip-path="url(#pcf134829a2)" d="M 1145.453251 432.51415 
L 582.366689 250.388289 
" style="fill:none;stroke:#008000;"/>
    <path clip-path="url(#pcf134829a2)" d="M 1105.137691 384.002626 
L 1059.032163 340.903558 
" style="fill:none;stroke:#008000;"/>
    <path clip-path="url(#pcf134829a2)" d="M 1105.137691 384.002626 
L 1007.863733 303.896599 
" style="fill:none;stroke:#008000;"/>
    <path clip-path="url(#pcf134829a2)" d="M 1105.137691 384.002626 
L 952.439455 273.565388 
" style="fill:none;stroke:#008000;"/>
    <path clip-path="url(#pcf134829a2)" d="M 1105.137691 384.002626 
L 893.633281 250.38826 
" style="fill:none;stroke:#008000;"/>
    <path clip-path="url(#pcf134829a2)" d="M 1105.137691 384.002626 
L 832.372722 234.730769 
" style="fill:none;stroke:#008000;"/>
    <path clip-path="url(#pcf134829a2)" d="M 1105.137691 384.002626 
L 769.623801 226.839778 
" style="fill:none;stroke:#008000;"/>
    <path clip-path="url(#pcf134829a2)" d="M 1105.137691 384.002626 
L 706.376214 226.839778 
" style="fill:none;stroke:#008000;"/>
    <path clip-path="url(#pcf134829a2)" d="M 1105.137691 384.002626 
L 643.627293 234.730769 
" style="fill:none;stroke:#008000;"/>
    <path clip-path="url(#pcf134829a2)" d="M 1105.137691 384.002626 
L 582.366689 250.388289 
" style="fill:none;stroke:#008000;"/>
    <path clip-path="url(#pcf134829a2)" d="M 1105.137691 384.002626 
L 523.560515 273.565418 
" style="fill:none;stroke:#008000;"/>
    <path clip-path="url(#pcf134829a2)" d="M 1059.032163 340.903558 
L 1007.863733 303.896599 
" style="fill:none;stroke:#008000;"/>
    <path clip-path="url(#pcf134829a2)" d="M 1059.032163 340.903558 
L 952.439455 273.565388 
" style="fill:none;stroke:#008000;"/>
    <path clip-path="url(#pcf134829a2)" d="M 1059.032163 340.903558 
L 893.633281 250.38826 
" style="fill:none;stroke:#008000;"/>
    <path clip-path="url(#pcf134829a2)" d="M 1059.032163 340.903558 
L 832.372722 234.730769 
" style="fill:none;stroke:#008000;"/>
    <path clip-path="url(#pcf134829a2)" d="M 1059.032163 340.903558 
L 769.623801 226.839778 
" style="fill:none;stroke:#008000;"/>
    <path clip-path="url(#pcf134829a2)" d="M 1059.032163 340.903558 
L 706.376214 226.839778 
" style="fill:none;stroke:#008000;"/>
    <path clip-path="url(#pcf134829a2)" d="M 1059.032163 340.903558 
L 643.627293 234.730769 
" style="fill:none;stroke:#008000;"/>
    <path clip-path="url(#pcf134829a2)" d="M 1059.032163 340.903558 
L 582.366689 250.388289 
" style="fill:none;stroke:#008000;"/>
    <path clip-path="url(#pcf134829a2)" d="M 1059.032163 340.903558 
L 523.560515 273.565418 
" style="fill:none;stroke:#008000;"/>
    <path clip-path="url(#pcf134829a2)" d="M 1059.032163 340.903558 
L 468.136267 303.896569 
" style="fill:none;stroke:#008000;"/>
    <path clip-path="url(#pcf134829a2)" d="M 1007.863733 303.896599 
L 952.439455 273.565388 
" style="fill:none;stroke:#008000;"/>
    <path clip-path="url(#pcf134829a2)" d="M 1007.863733 303.896599 
L 893.633281 250.38826 
" style="fill:none;stroke:#008000;"/>
    <path clip-path="url(#pcf134829a2)" d="M 1007.863733 303.896599 
L 832.372722 234.730769 
" style="fill:none;stroke:#008000;"/>
    <path clip-path="url(#pcf134829a2)" d="M 1007.863733 303.896599 
L 769.623801 226.839778 
" style="fill:none;stroke:#008000;"/>
    <path clip-path="url(#pcf134829a2)" d="M 1007.863733 303.896599 
L 706.376214 226.839778 
" style="fill:none;stroke:#008000;"/>
    <path clip-path="url(#pcf134829a2)" d="M 1007.863733 303.896599 
L 643.627293 234.730769 
" style="fill:none;stroke:#008000;"/>
    <path clip-path="url(#pcf134829a2)" d="M 1007.863733 303.896599 
L 582.366689 250.388289 
" style="fill:none;stroke:#008000;"/>
    <path clip-path="url(#pcf134829a2)" d="M 1007.863733 303.896599 
L 523.560515 273.565418 
" style="fill:none;stroke:#008000;"/>
    <path clip-path="url(#pcf134829a2)" d="M 1007.863733 303.896599 
L 468.136267 303.896569 
" style="fill:none;stroke:#008000;"/>
    <path clip-path="url(#pcf134829a2)" d="M 1007.863733 303.896599 
L 416.967837 340.903558 
" style="fill:none;stroke:#008000;"/>
    <path clip-path="url(#pcf134829a2)" d="M 952.439455 273.565388 
L 893.633281 250.38826 
" style="fill:none;stroke:#008000;"/>
    <path clip-path="url(#pcf134829a2)" d="M 952.439455 273.565388 
L 832.372722 234.730769 
" style="fill:none;stroke:#008000;"/>
    <path clip-path="url(#pcf134829a2)" d="M 952.439455 273.565388 
L 769.623801 226.839778 
" style="fill:none;stroke:#008000;"/>
    <path clip-path="url(#pcf134829a2)" d="M 952.439455 273.565388 
L 706.376214 226.839778 
" style="fill:none;stroke:#008000;"/>
    <path clip-path="url(#pcf134829a2)" d="M 952.439455 273.565388 
L 643.627293 234.730769 
" style="fill:none;stroke:#008000;"/>
    <path clip-path="url(#pcf134829a2)" d="M 952.439455 273.565388 
L 582.366689 250.388289 
" style="fill:none;stroke:#008000;"/>
    <path clip-path="url(#pcf134829a2)" d="M 952.439455 273.565388 
L 523.560515 273.565418 
" style="fill:none;stroke:#008000;"/>
    <path clip-path="url(#pcf134829a2)" d="M 952.439455 273.565388 
L 468.136267 303.896569 
" style="fill:none;stroke:#008000;"/>
    <path clip-path="url(#pcf134829a2)" d="M 952.439455 273.565388 
L 416.967837 340.903558 
" style="fill:none;stroke:#008000;"/>
    <path clip-path="url(#pcf134829a2)" d="M 952.439455 273.565388 
L 370.862309 384.002656 
" style="fill:none;stroke:#008000;"/>
    <path clip-path="url(#pcf134829a2)" d="M 893.633281 250.38826 
L 832.372722 234.730769 
" style="fill:none;stroke:#008000;"/>
    <path clip-path="url(#pcf134829a2)" d="M 893.633281 250.38826 
L 769.623801 226.839778 
" style="fill:none;stroke:#008000;"/>
    <path clip-path="url(#pcf134829a2)" d="M 893.633281 250.38826 
L 706.376214 226.839778 
" style="fill:none;stroke:#008000;"/>
    <path clip-path="url(#pcf134829a2)" d="M 893.633281 250.38826 
L 643.627293 234.730769 
" style="fill:none;stroke:#008000;"/>
    <path clip-path="url(#pcf134829a2)" d="M 893.633281 250.38826 
L 582.366689 250.388289 
" style="fill:none;stroke:#008000;"/>
    <path clip-path="url(#pcf134829a2)" d="M 893.633281 250.38826 
L 523.560515 273.565418 
" style="fill:none;stroke:#008000;"/>
    <path clip-path="url(#pcf134829a2)" d="M 893.633281 250.38826 
L 468.136267 303.896569 
" style="fill:none;stroke:#008000;"/>
    <path clip-path="url(#pcf134829a2)" d="M 893.633281 250.38826 
L 416.967837 340.903558 
" style="fill:none;stroke:#008000;"/>
    <path clip-path="url(#pcf134829a2)" d="M 893.633281 250.38826 
L 370.862309 384.002656 
" style="fill:none;stroke:#008000;"/>
    <path clip-path="url(#pcf134829a2)" d="M 893.633281 250.38826 
L 330.546719 432.51418 
" style="fill:none;stroke:#008000;"/>
    <path clip-path="url(#pcf134829a2)" d="M 832.372722 234.730769 
L 769.623801 226.839778 
" style="fill:none;stroke:#008000;"/>
    <path clip-path="url(#pcf134829a2)" d="M 832.372722 234.730769 
L 706.376214 226.839778 
" style="fill:none;stroke:#008000;"/>
    <path clip-path="url(#pcf134829a2)" d="M 832.372722 234.730769 
L 643.627293 234.730769 
" style="fill:none;stroke:#008000;"/>
    <path clip-path="url(#pcf134829a2)" d="M 832.372722 234.730769 
L 582.366689 250.388289 
" style="fill:none;stroke:#008000;"/>
    <path clip-path="url(#pcf134829a2)" d="M 832.372722 234.730769 
L 523.560515 273.565418 
" style="fill:none;stroke:#008000;"/>
    <path clip-path="url(#pcf134829a2)" d="M 832.372722 234.730769 
L 468.136267 303.896569 
" style="fill:none;stroke:#008000;"/>
    <path clip-path="url(#pcf134829a2)" d="M 832.372722 234.730769 
L 416.967837 340.903558 
" style="fill:none;stroke:#008000;"/>
    <path clip-path="url(#pcf134829a2)" d="M 832.372722 234.730769 
L 370.862309 384.002656 
" style="fill:none;stroke:#008000;"/>
    <path clip-path="url(#pcf134829a2)" d="M 832.372722 234.730769 
L 330.546719 432.51418 
" style="fill:none;stroke:#008000;"/>
    <path clip-path="url(#pcf134829a2)" d="M 832.372722 234.730769 
L 296.656995 485.67298 
" style="fill:none;stroke:#008000;"/>
    <path clip-path="url(#pcf134829a2)" d="M 769.623801 226.839778 
L 706.376214 226.839778 
" style="fill:none;stroke:#008000;"/>
    <path clip-path="url(#pcf134829a2)" d="M 769.623801 226.839778 
L 643.627293 234.730769 
" style="fill:none;stroke:#008000;"/>
    <path clip-path="url(#pcf134829a2)" d="M 769.623801 226.839778 
L 582.366689 250.388289 
" style="fill:none;stroke:#008000;"/>
    <path clip-path="url(#pcf134829a2)" d="M 769.623801 226.839778 
L 523.560515 273.565418 
" style="fill:none;stroke:#008000;"/>
    <path clip-path="url(#pcf134829a2)" d="M 769.623801 226.839778 
L 468.136267 303.896569 
" style="fill:none;stroke:#008000;"/>
    <path clip-path="url(#pcf134829a2)" d="M 769.623801 226.839778 
L 416.967837 340.903558 
" style="fill:none;stroke:#008000;"/>
    <path clip-path="url(#pcf134829a2)" d="M 769.623801 226.839778 
L 370.862309 384.002656 
" style="fill:none;stroke:#008000;"/>
    <path clip-path="url(#pcf134829a2)" d="M 769.623801 226.839778 
L 330.546719 432.51418 
" style="fill:none;stroke:#008000;"/>
    <path clip-path="url(#pcf134829a2)" d="M 769.623801 226.839778 
L 296.656995 485.67298 
" style="fill:none;stroke:#008000;"/>
    <path clip-path="url(#pcf134829a2)" d="M 769.623801 226.839778 
L 269.727452 542.640906 
" style="fill:none;stroke:#008000;"/>
    <path clip-path="url(#pcf134829a2)" d="M 706.376214 226.839778 
L 643.627293 234.730769 
" style="fill:none;stroke:#008000;"/>
    <path clip-path="url(#pcf134829a2)" d="M 706.376214 226.839778 
L 582.366689 250.388289 
" style="fill:none;stroke:#008000;"/>
    <path clip-path="url(#pcf134829a2)" d="M 706.376214 226.839778 
L 523.560515 273.565418 
" style="fill:none;stroke:#008000;"/>
    <path clip-path="url(#pcf134829a2)" d="M 706.376214 226.839778 
L 468.136267 303.896569 
" style="fill:none;stroke:#008000;"/>
    <path clip-path="url(#pcf134829a2)" d="M 706.376214 226.839778 
L 416.967837 340.903558 
" style="fill:none;stroke:#008000;"/>
    <path clip-path="url(#pcf134829a2)" d="M 706.376214 226.839778 
L 370.862309 384.002656 
" style="fill:none;stroke:#008000;"/>
    <path clip-path="url(#pcf134829a2)" d="M 706.376214 226.839778 
L 330.546719 432.51418 
" style="fill:none;stroke:#008000;"/>
    <path clip-path="url(#pcf134829a2)" d="M 706.376214 226.839778 
L 296.656995 485.67298 
" style="fill:none;stroke:#008000;"/>
    <path clip-path="url(#pcf134829a2)" d="M 706.376214 226.839778 
L 269.727452 542.640906 
" style="fill:none;stroke:#008000;"/>
    <path clip-path="url(#pcf134829a2)" d="M 706.376214 226.839778 
L 250.18286 602.519435 
" style="fill:none;stroke:#008000;"/>
    <path clip-path="url(#pcf134829a2)" d="M 643.627293 234.730769 
L 582.366689 250.388289 
" style="fill:none;stroke:#008000;"/>
    <path clip-path="url(#pcf134829a2)" d="M 643.627293 234.730769 
L 523.560515 273.565418 
" style="fill:none;stroke:#008000;"/>
    <path clip-path="url(#pcf134829a2)" d="M 643.627293 234.730769 
L 468.136267 303.896569 
" style="fill:none;stroke:#008000;"/>
    <path clip-path="url(#pcf134829a2)" d="M 643.627293 234.730769 
L 416.967837 340.903558 
" style="fill:none;stroke:#008000;"/>
    <path clip-path="url(#pcf134829a2)" d="M 643.627293 234.730769 
L 370.862309 384.002656 
" style="fill:none;stroke:#008000;"/>
    <path clip-path="url(#pcf134829a2)" d="M 643.627293 234.730769 
L 330.546719 432.51418 
" style="fill:none;stroke:#008000;"/>
    <path clip-path="url(#pcf134829a2)" d="M 643.627293 234.730769 
L 296.656995 485.67298 
" style="fill:none;stroke:#008000;"/>
    <path clip-path="url(#pcf134829a2)" d="M 643.627293 234.730769 
L 269.727452 542.640906 
" style="fill:none;stroke:#008000;"/>
    <path clip-path="url(#pcf134829a2)" d="M 643.627293 234.730769 
L 250.18286 602.519435 
" style="fill:none;stroke:#008000;"/>
    <path clip-path="url(#pcf134829a2)" d="M 643.627293 234.730769 
L 238.331429 664.364258 
" style="fill:none;stroke:#008000;"/>
    <path clip-path="url(#pcf134829a2)" d="M 582.366689 250.388289 
L 523.560515 273.565418 
" style="fill:none;stroke:#008000;"/>
    <path clip-path="url(#pcf134829a2)" d="M 582.366689 250.388289 
L 468.136267 303.896569 
" style="fill:none;stroke:#008000;"/>
    <path clip-path="url(#pcf134829a2)" d="M 582.366689 250.388289 
L 416.967837 340.903558 
" style="fill:none;stroke:#008000;"/>
    <path clip-path="url(#pcf134829a2)" d="M 582.366689 250.388289 
L 370.862309 384.002656 
" style="fill:none;stroke:#008000;"/>
    <path clip-path="url(#pcf134829a2)" d="M 582.366689 250.388289 
L 330.546719 432.51418 
" style="fill:none;stroke:#008000;"/>
    <path clip-path="url(#pcf134829a2)" d="M 582.366689 250.388289 
L 296.656995 485.67298 
" style="fill:none;stroke:#008000;"/>
    <path clip-path="url(#pcf134829a2)" d="M 582.366689 250.388289 
L 269.727452 542.640906 
" style="fill:none;stroke:#008000;"/>
    <path clip-path="url(#pcf134829a2)" d="M 582.366689 250.388289 
L 250.18286 602.519435 
" style="fill:none;stroke:#008000;"/>
    <path clip-path="url(#pcf134829a2)" d="M 582.366689 250.388289 
L 238.331429 664.364258 
" style="fill:none;stroke:#008000;"/>
    <path clip-path="url(#pcf134829a2)" d="M 582.366689 250.388289 
L 234.360089 727.200044 
" style="fill:none;stroke:#008000;"/>
    <path clip-path="url(#pcf134829a2)" d="M 523.560515 273.565418 
L 468.136267 303.896569 
" style="fill:none;stroke:#008000;"/>
    <path clip-path="url(#pcf134829a2)" d="M 523.560515 273.565418 
L 416.967837 340.903558 
" style="fill:none;stroke:#008000;"/>
    <path clip-path="url(#pcf134829a2)" d="M 523.560515 273.565418 
L 370.862309 384.002656 
" style="fill:none;stroke:#008000;"/>
    <path clip-path="url(#pcf134829a2)" d="M 523.560515 273.565418 
L 330.546719 432.51418 
" style="fill:none;stroke:#008000;"/>
    <path clip-path="url(#pcf134829a2)" d="M 523.560515 273.565418 
L 296.656995 485.67298 
" style="fill:none;stroke:#008000;"/>
    <path clip-path="url(#pcf134829a2)" d="M 523.560515 273.565418 
L 269.727452 542.640906 
" style="fill:none;stroke:#008000;"/>
    <path clip-path="url(#pcf134829a2)" d="M 523.560515 273.565418 
L 250.18286 602.519435 
" style="fill:none;stroke:#008000;"/>
    <path clip-path="url(#pcf134829a2)" d="M 523.560515 273.565418 
L 238.331429 664.364258 
" style="fill:none;stroke:#008000;"/>
    <path clip-path="url(#pcf134829a2)" d="M 523.560515 273.565418 
L 234.360089 727.200044 
" style="fill:none;stroke:#008000;"/>
    <path clip-path="url(#pcf134829a2)" d="M 523.560515 273.565418 
L 238.331429 790.035705 
" style="fill:none;stroke:#008000;"/>
    <path clip-path="url(#pcf134829a2)" d="M 468.136267 303.896569 
L 416.967837 340.903558 
" style="fill:none;stroke:#008000;"/>
    <path clip-path="url(#pcf134829a2)" d="M 468.136267 303.896569 
L 370.862309 384.002656 
" style="fill:none;stroke:#008000;"/>
    <path clip-path="url(#pcf134829a2)" d="M 468.136267 303.896569 
L 330.546719 432.51418 
" style="fill:none;stroke:#008000;"/>
    <path clip-path="url(#pcf134829a2)" d="M 468.136267 303.896569 
L 296.656995 485.67298 
" style="fill:none;stroke:#008000;"/>
    <path clip-path="url(#pcf134829a2)" d="M 468.136267 303.896569 
L 269.727452 542.640906 
" style="fill:none;stroke:#008000;"/>
    <path clip-path="url(#pcf134829a2)" d="M 468.136267 303.896569 
L 250.18286 602.519435 
" style="fill:none;stroke:#008000;"/>
    <path clip-path="url(#pcf134829a2)" d="M 468.136267 303.896569 
L 238.331429 664.364258 
" style="fill:none;stroke:#008000;"/>
    <path clip-path="url(#pcf134829a2)" d="M 468.136267 303.896569 
L 234.360089 727.200044 
" style="fill:none;stroke:#008000;"/>
    <path clip-path="url(#pcf134829a2)" d="M 468.136267 303.896569 
L 238.331429 790.035705 
" style="fill:none;stroke:#008000;"/>
    <path clip-path="url(#pcf134829a2)" d="M 468.136267 303.896569 
L 250.18286 851.880535 
" style="fill:none;stroke:#008000;"/>
    <path clip-path="url(#pcf134829a2)" d="M 416.967837 340.903558 
L 370.862309 384.002656 
" style="fill:none;stroke:#008000;"/>
    <path clip-path="url(#pcf134829a2)" d="M 416.967837 340.903558 
L 330.546719 432.51418 
" style="fill:none;stroke:#008000;"/>
    <path clip-path="url(#pcf134829a2)" d="M 416.967837 340.903558 
L 296.656995 485.67298 
" style="fill:none;stroke:#008000;"/>
    <path clip-path="url(#pcf134829a2)" d="M 416.967837 340.903558 
L 269.727452 542.640906 
" style="fill:none;stroke:#008000;"/>
    <path clip-path="url(#pcf134829a2)" d="M 416.967837 340.903558 
L 250.18286 602.519435 
" style="fill:none;stroke:#008000;"/>
    <path clip-path="url(#pcf134829a2)" d="M 416.967837 340.903558 
L 238.331429 664.364258 
" style="fill:none;stroke:#008000;"/>
    <path clip-path="url(#pcf134829a2)" d="M 416.967837 340.903558 
L 234.360089 727.200044 
" style="fill:none;stroke:#008000;"/>
    <path clip-path="url(#pcf134829a2)" d="M 416.967837 340.903558 
L 238.331429 790.035705 
" style="fill:none;stroke:#008000;"/>
    <path clip-path="url(#pcf134829a2)" d="M 416.967837 340.903558 
L 250.18286 851.880535 
" style="fill:none;stroke:#008000;"/>
    <path clip-path="url(#pcf134829a2)" d="M 416.967837 340.903558 
L 269.727452 911.759064 
" style="fill:none;stroke:#008000;"/>
    <path clip-path="url(#pcf134829a2)" d="M 370.862309 384.002656 
L 330.546719 432.51418 
" style="fill:none;stroke:#008000;"/>
    <path clip-path="url(#pcf134829a2)" d="M 370.862309 384.002656 
L 296.656995 485.67298 
" style="fill:none;stroke:#008000;"/>
    <path clip-path="url(#pcf134829a2)" d="M 370.862309 384.002656 
L 269.727452 542.640906 
" style="fill:none;stroke:#008000;"/>
    <path clip-path="url(#pcf134829a2)" d="M 370.862309 384.002656 
L 250.18286 602.519435 
" style="fill:none;stroke:#008000;"/>
    <path clip-path="url(#pcf134829a2)" d="M 370.862309 384.002656 
L 238.331429 664.364258 
" style="fill:none;stroke:#008000;"/>
    <path clip-path="url(#pcf134829a2)" d="M 370.862309 384.002656 
L 234.360089 727.200044 
" style="fill:none;stroke:#008000;"/>
    <path clip-path="url(#pcf134829a2)" d="M 370.862309 384.002656 
L 238.331429 790.035705 
" style="fill:none;stroke:#008000;"/>
    <path clip-path="url(#pcf134829a2)" d="M 370.862309 384.002656 
L 250.18286 851.880535 
" style="fill:none;stroke:#008000;"/>
    <path clip-path="url(#pcf134829a2)" d="M 370.862309 384.002656 
L 269.727452 911.759064 
" style="fill:none;stroke:#008000;"/>
    <path clip-path="url(#pcf134829a2)" d="M 370.862309 384.002656 
L 296.656995 968.72699 
" style="fill:none;stroke:#008000;"/>
    <path clip-path="url(#pcf134829a2)" d="M 330.546719 432.51418 
L 296.656995 485.67298 
" style="fill:none;stroke:#008000;"/>
    <path clip-path="url(#pcf134829a2)" d="M 330.546719 432.51418 
L 269.727452 542.640906 
" style="fill:none;stroke:#008000;"/>
    <path clip-path="url(#pcf134829a2)" d="M 330.546719 432.51418 
L 250.18286 602.519435 
" style="fill:none;stroke:#008000;"/>
    <path clip-path="url(#pcf134829a2)" d="M 330.546719 432.51418 
L 238.331429 664.364258 
" style="fill:none;stroke:#008000;"/>
    <path clip-path="url(#pcf134829a2)" d="M 330.546719 432.51418 
L 234.360089 727.200044 
" style="fill:none;stroke:#008000;"/>
    <path clip-path="url(#pcf134829a2)" d="M 330.546719 432.51418 
L 238.331429 790.035705 
" style="fill:none;stroke:#008000;"/>
    <path clip-path="url(#pcf134829a2)" d="M 330.546719 432.51418 
L 250.18286 851.880535 
" style="fill:none;stroke:#008000;"/>
    <path clip-path="url(#pcf134829a2)" d="M 330.546719 432.51418 
L 269.727452 911.759064 
" style="fill:none;stroke:#008000;"/>
    <path clip-path="url(#pcf134829a2)" d="M 330.546719 432.51418 
L 296.656995 968.72699 
" style="fill:none;stroke:#008000;"/>
    <path clip-path="url(#pcf134829a2)" d="M 330.546719 432.51418 
L 330.546779 1021.88591 
" style="fill:none;stroke:#008000;"/>
    <path clip-path="url(#pcf134829a2)" d="M 296.656995 485.67298 
L 269.727452 542.640906 
" style="fill:none;stroke:#008000;"/>
    <path clip-path="url(#pcf134829a2)" d="M 296.656995 485.67298 
L 250.18286 602.519435 
" style="fill:none;stroke:#008000;"/>
    <path clip-path="url(#pcf134829a2)" d="M 296.656995 485.67298 
L 238.331429 664.364258 
" style="fill:none;stroke:#008000;"/>
    <path clip-path="url(#pcf134829a2)" d="M 296.656995 485.67298 
L 234.360089 727.200044 
" style="fill:none;stroke:#008000;"/>
    <path clip-path="url(#pcf134829a2)" d="M 296.656995 485.67298 
L 238.331429 790.035705 
" style="fill:none;stroke:#008000;"/>
    <path clip-path="url(#pcf134829a2)" d="M 296.656995 485.67298 
L 250.18286 851.880535 
" style="fill:none;stroke:#008000;"/>
    <path clip-path="url(#pcf134829a2)" d="M 296.656995 485.67298 
L 269.727452 911.759064 
" style="fill:none;stroke:#008000;"/>
    <path clip-path="url(#pcf134829a2)" d="M 296.656995 485.67298 
L 296.656995 968.72699 
" style="fill:none;stroke:#008000;"/>
    <path clip-path="url(#pcf134829a2)" d="M 296.656995 485.67298 
L 330.546779 1021.88591 
" style="fill:none;stroke:#008000;"/>
    <path clip-path="url(#pcf134829a2)" d="M 296.656995 485.67298 
L 370.862279 1070.397344 
" style="fill:none;stroke:#008000;"/>
    <path clip-path="url(#pcf134829a2)" d="M 269.727452 542.640906 
L 250.18286 602.519435 
" style="fill:none;stroke:#008000;"/>
    <path clip-path="url(#pcf134829a2)" d="M 269.727452 542.640906 
L 238.331429 664.364258 
" style="fill:none;stroke:#008000;"/>
    <path clip-path="url(#pcf134829a2)" d="M 269.727452 542.640906 
L 234.360089 727.200044 
" style="fill:none;stroke:#008000;"/>
    <path clip-path="url(#pcf134829a2)" d="M 269.727452 542.640906 
L 238.331429 790.035705 
" style="fill:none;stroke:#008000;"/>
    <path clip-path="url(#pcf134829a2)" d="M 269.727452 542.640906 
L 250.18286 851.880535 
" style="fill:none;stroke:#008000;"/>
    <path clip-path="url(#pcf134829a2)" d="M 269.727452 542.640906 
L 269.727452 911.759064 
" style="fill:none;stroke:#008000;"/>
    <path clip-path="url(#pcf134829a2)" d="M 269.727452 542.640906 
L 296.656995 968.72699 
" style="fill:none;stroke:#008000;"/>
    <path clip-path="url(#pcf134829a2)" d="M 269.727452 542.640906 
L 330.546779 1021.88591 
" style="fill:none;stroke:#008000;"/>
    <path clip-path="url(#pcf134829a2)" d="M 269.727452 542.640906 
L 370.862279 1070.397344 
" style="fill:none;stroke:#008000;"/>
    <path clip-path="url(#pcf134829a2)" d="M 269.727452 542.640906 
L 416.967927 1113.496502 
" style="fill:none;stroke:#008000;"/>
    <path clip-path="url(#pcf134829a2)" d="M 250.18286 602.519435 
L 238.331429 664.364258 
" style="fill:none;stroke:#008000;"/>
    <path clip-path="url(#pcf134829a2)" d="M 250.18286 602.519435 
L 234.360089 727.200044 
" style="fill:none;stroke:#008000;"/>
    <path clip-path="url(#pcf134829a2)" d="M 250.18286 602.519435 
L 238.331429 790.035705 
" style="fill:none;stroke:#008000;"/>
    <path clip-path="url(#pcf134829a2)" d="M 250.18286 602.519435 
L 250.18286 851.880535 
" style="fill:none;stroke:#008000;"/>
    <path clip-path="url(#pcf134829a2)" d="M 250.18286 602.519435 
L 269.727452 911.759064 
" style="fill:none;stroke:#008000;"/>
    <path clip-path="url(#pcf134829a2)" d="M 250.18286 602.519435 
L 296.656995 968.72699 
" style="fill:none;stroke:#008000;"/>
    <path clip-path="url(#pcf134829a2)" d="M 250.18286 602.519435 
L 330.546779 1021.88591 
" style="fill:none;stroke:#008000;"/>
    <path clip-path="url(#pcf134829a2)" d="M 250.18286 602.519435 
L 370.862279 1070.397344 
" style="fill:none;stroke:#008000;"/>
    <path clip-path="url(#pcf134829a2)" d="M 250.18286 602.519435 
L 416.967927 1113.496502 
" style="fill:none;stroke:#008000;"/>
    <path clip-path="url(#pcf134829a2)" d="M 250.18286 602.519435 
L 468.136147 1150.503342 
" style="fill:none;stroke:#008000;"/>
    <path clip-path="url(#pcf134829a2)" d="M 238.331429 664.364258 
L 234.360089 727.200044 
" style="fill:none;stroke:#008000;"/>
    <path clip-path="url(#pcf134829a2)" d="M 238.331429 664.364258 
L 238.331429 790.035705 
" style="fill:none;stroke:#008000;"/>
    <path clip-path="url(#pcf134829a2)" d="M 238.331429 664.364258 
L 250.18286 851.880535 
" style="fill:none;stroke:#008000;"/>
    <path clip-path="url(#pcf134829a2)" d="M 238.331429 664.364258 
L 269.727452 911.759064 
" style="fill:none;stroke:#008000;"/>
    <path clip-path="url(#pcf134829a2)" d="M 238.331429 664.364258 
L 296.656995 968.72699 
" style="fill:none;stroke:#008000;"/>
    <path clip-path="url(#pcf134829a2)" d="M 238.331429 664.364258 
L 330.546779 1021.88591 
" style="fill:none;stroke:#008000;"/>
    <path clip-path="url(#pcf134829a2)" d="M 238.331429 664.364258 
L 370.862279 1070.397344 
" style="fill:none;stroke:#008000;"/>
    <path clip-path="url(#pcf134829a2)" d="M 238.331429 664.364258 
L 416.967927 1113.496502 
" style="fill:none;stroke:#008000;"/>
    <path clip-path="url(#pcf134829a2)" d="M 238.331429 664.364258 
L 468.136147 1150.503342 
" style="fill:none;stroke:#008000;"/>
    <path clip-path="url(#pcf134829a2)" d="M 238.331429 664.364258 
L 523.560485 1180.834582 
" style="fill:none;stroke:#008000;"/>
    <path clip-path="url(#pcf134829a2)" d="M 234.360089 727.200044 
L 238.331429 790.035705 
" style="fill:none;stroke:#008000;"/>
    <path clip-path="url(#pcf134829a2)" d="M 234.360089 727.200044 
L 250.18286 851.880535 
" style="fill:none;stroke:#008000;"/>
    <path clip-path="url(#pcf134829a2)" d="M 234.360089 727.200044 
L 269.727452 911.759064 
" style="fill:none;stroke:#008000;"/>
    <path clip-path="url(#pcf134829a2)" d="M 234.360089 727.200044 
L 296.656995 968.72699 
" style="fill:none;stroke:#008000;"/>
    <path clip-path="url(#pcf134829a2)" d="M 234.360089 727.200044 
L 330.546779 1021.88591 
" style="fill:none;stroke:#008000;"/>
    <path clip-path="url(#pcf134829a2)" d="M 234.360089 727.200044 
L 370.862279 1070.397344 
" style="fill:none;stroke:#008000;"/>
    <path clip-path="url(#pcf134829a2)" d="M 234.360089 727.200044 
L 416.967927 1113.496502 
" style="fill:none;stroke:#008000;"/>
    <path clip-path="url(#pcf134829a2)" d="M 234.360089 727.200044 
L 468.136147 1150.503342 
" style="fill:none;stroke:#008000;"/>
    <path clip-path="url(#pcf134829a2)" d="M 234.360089 727.200044 
L 523.560485 1180.834582 
" style="fill:none;stroke:#008000;"/>
    <path clip-path="url(#pcf134829a2)" d="M 234.360089 727.200044 
L 582.366659 1204.011711 
" style="fill:none;stroke:#008000;"/>
    <path clip-path="url(#pcf134829a2)" d="M 238.331429 790.035705 
L 250.18286 851.880535 
" style="fill:none;stroke:#008000;"/>
    <path clip-path="url(#pcf134829a2)" d="M 238.331429 790.035705 
L 269.727452 911.759064 
" style="fill:none;stroke:#008000;"/>
    <path clip-path="url(#pcf134829a2)" d="M 238.331429 790.035705 
L 296.656995 968.72699 
" style="fill:none;stroke:#008000;"/>
    <path clip-path="url(#pcf134829a2)" d="M 238.331429 790.035705 
L 330.546779 1021.88591 
" style="fill:none;stroke:#008000;"/>
    <path clip-path="url(#pcf134829a2)" d="M 238.331429 790.035705 
L 370.862279 1070.397344 
" style="fill:none;stroke:#008000;"/>
    <path clip-path="url(#pcf134829a2)" d="M 238.331429 790.035705 
L 416.967927 1113.496502 
" style="fill:none;stroke:#008000;"/>
    <path clip-path="url(#pcf134829a2)" d="M 238.331429 790.035705 
L 468.136147 1150.503342 
" style="fill:none;stroke:#008000;"/>
    <path clip-path="url(#pcf134829a2)" d="M 238.331429 790.035705 
L 523.560485 1180.834582 
" style="fill:none;stroke:#008000;"/>
    <path clip-path="url(#pcf134829a2)" d="M 238.331429 790.035705 
L 582.366659 1204.011711 
" style="fill:none;stroke:#008000;"/>
    <path clip-path="url(#pcf134829a2)" d="M 238.331429 790.035705 
L 643.627263 1219.669231 
" style="fill:none;stroke:#008000;"/>
    <path clip-path="url(#pcf134829a2)" d="M 250.18286 851.880535 
L 269.727452 911.759064 
" style="fill:none;stroke:#008000;"/>
    <path clip-path="url(#pcf134829a2)" d="M 250.18286 851.880535 
L 296.656995 968.72699 
" style="fill:none;stroke:#008000;"/>
    <path clip-path="url(#pcf134829a2)" d="M 250.18286 851.880535 
L 330.546779 1021.88591 
" style="fill:none;stroke:#008000;"/>
    <path clip-path="url(#pcf134829a2)" d="M 250.18286 851.880535 
L 370.862279 1070.397344 
" style="fill:none;stroke:#008000;"/>
    <path clip-path="url(#pcf134829a2)" d="M 250.18286 851.880535 
L 416.967927 1113.496502 
" style="fill:none;stroke:#008000;"/>
    <path clip-path="url(#pcf134829a2)" d="M 250.18286 851.880535 
L 468.136147 1150.503342 
" style="fill:none;stroke:#008000;"/>
    <path clip-path="url(#pcf134829a2)" d="M 250.18286 851.880535 
L 523.560485 1180.834582 
" style="fill:none;stroke:#008000;"/>
    <path clip-path="url(#pcf134829a2)" d="M 250.18286 851.880535 
L 582.366659 1204.011711 
" style="fill:none;stroke:#008000;"/>
    <path clip-path="url(#pcf134829a2)" d="M 250.18286 851.880535 
L 643.627263 1219.669231 
" style="fill:none;stroke:#008000;"/>
    <path clip-path="url(#pcf134829a2)" d="M 250.18286 851.880535 
L 706.37618 1227.560222 
" style="fill:none;stroke:#008000;"/>
    <path clip-path="url(#pcf134829a2)" d="M 269.727452 911.759064 
L 296.656995 968.72699 
" style="fill:none;stroke:#008000;"/>
    <path clip-path="url(#pcf134829a2)" d="M 269.727452 911.759064 
L 330.546779 1021.88591 
" style="fill:none;stroke:#008000;"/>
    <path clip-path="url(#pcf134829a2)" d="M 269.727452 911.759064 
L 370.862279 1070.397344 
" style="fill:none;stroke:#008000;"/>
    <path clip-path="url(#pcf134829a2)" d="M 269.727452 911.759064 
L 416.967927 1113.496502 
" style="fill:none;stroke:#008000;"/>
    <path clip-path="url(#pcf134829a2)" d="M 269.727452 911.759064 
L 468.136147 1150.503342 
" style="fill:none;stroke:#008000;"/>
    <path clip-path="url(#pcf134829a2)" d="M 269.727452 911.759064 
L 523.560485 1180.834582 
" style="fill:none;stroke:#008000;"/>
    <path clip-path="url(#pcf134829a2)" d="M 269.727452 911.759064 
L 582.366659 1204.011711 
" style="fill:none;stroke:#008000;"/>
    <path clip-path="url(#pcf134829a2)" d="M 269.727452 911.759064 
L 643.627263 1219.669231 
" style="fill:none;stroke:#008000;"/>
    <path clip-path="url(#pcf134829a2)" d="M 269.727452 911.759064 
L 706.37618 1227.560222 
" style="fill:none;stroke:#008000;"/>
    <path clip-path="url(#pcf134829a2)" d="M 269.727452 911.759064 
L 769.623831 1227.560222 
" style="fill:none;stroke:#008000;"/>
    <path clip-path="url(#pcf134829a2)" d="M 296.656995 968.72699 
L 330.546779 1021.88591 
" style="fill:none;stroke:#008000;"/>
    <path clip-path="url(#pcf134829a2)" d="M 296.656995 968.72699 
L 370.862279 1070.397344 
" style="fill:none;stroke:#008000;"/>
    <path clip-path="url(#pcf134829a2)" d="M 296.656995 968.72699 
L 416.967927 1113.496502 
" style="fill:none;stroke:#008000;"/>
    <path clip-path="url(#pcf134829a2)" d="M 296.656995 968.72699 
L 468.136147 1150.503342 
" style="fill:none;stroke:#008000;"/>
    <path clip-path="url(#pcf134829a2)" d="M 296.656995 968.72699 
L 523.560485 1180.834582 
" style="fill:none;stroke:#008000;"/>
    <path clip-path="url(#pcf134829a2)" d="M 296.656995 968.72699 
L 582.366659 1204.011711 
" style="fill:none;stroke:#008000;"/>
    <path clip-path="url(#pcf134829a2)" d="M 296.656995 968.72699 
L 643.627263 1219.669231 
" style="fill:none;stroke:#008000;"/>
    <path clip-path="url(#pcf134829a2)" d="M 296.656995 968.72699 
L 706.37618 1227.560222 
" style="fill:none;stroke:#008000;"/>
    <path clip-path="url(#pcf134829a2)" d="M 296.656995 968.72699 
L 769.623831 1227.560222 
" style="fill:none;stroke:#008000;"/>
    <path clip-path="url(#pcf134829a2)" d="M 296.656995 968.72699 
L 832.372752 1219.669231 
" style="fill:none;stroke:#008000;"/>
    <path clip-path="url(#pcf134829a2)" d="M 330.546779 1021.88591 
L 370.862279 1070.397344 
" style="fill:none;stroke:#008000;"/>
    <path clip-path="url(#pcf134829a2)" d="M 330.546779 1021.88591 
L 416.967927 1113.496502 
" style="fill:none;stroke:#008000;"/>
    <path clip-path="url(#pcf134829a2)" d="M 330.546779 1021.88591 
L 468.136147 1150.503342 
" style="fill:none;stroke:#008000;"/>
    <path clip-path="url(#pcf134829a2)" d="M 330.546779 1021.88591 
L 523.560485 1180.834582 
" style="fill:none;stroke:#008000;"/>
    <path clip-path="url(#pcf134829a2)" d="M 330.546779 1021.88591 
L 582.366659 1204.011711 
" style="fill:none;stroke:#008000;"/>
    <path clip-path="url(#pcf134829a2)" d="M 330.546779 1021.88591 
L 643.627263 1219.669231 
" style="fill:none;stroke:#008000;"/>
    <path clip-path="url(#pcf134829a2)" d="M 330.546779 1021.88591 
L 706.37618 1227.560222 
" style="fill:none;stroke:#008000;"/>
    <path clip-path="url(#pcf134829a2)" d="M 330.546779 1021.88591 
L 769.623831 1227.560222 
" style="fill:none;stroke:#008000;"/>
    <path clip-path="url(#pcf134829a2)" d="M 330.546779 1021.88591 
L 832.372752 1219.669231 
" style="fill:none;stroke:#008000;"/>
    <path clip-path="url(#pcf134829a2)" d="M 330.546779 1021.88591 
L 893.633356 1204.011711 
" style="fill:none;stroke:#008000;"/>
    <path clip-path="url(#pcf134829a2)" d="M 370.862279 1070.397344 
L 416.967927 1113.496502 
" style="fill:none;stroke:#008000;"/>
    <path clip-path="url(#pcf134829a2)" d="M 370.862279 1070.397344 
L 468.136147 1150.503342 
" style="fill:none;stroke:#008000;"/>
    <path clip-path="url(#pcf134829a2)" d="M 370.862279 1070.397344 
L 523.560485 1180.834582 
" style="fill:none;stroke:#008000;"/>
    <path clip-path="url(#pcf134829a2)" d="M 370.862279 1070.397344 
L 582.366659 1204.011711 
" style="fill:none;stroke:#008000;"/>
    <path clip-path="url(#pcf134829a2)" d="M 370.862279 1070.397344 
L 643.627263 1219.669231 
" style="fill:none;stroke:#008000;"/>
    <path clip-path="url(#pcf134829a2)" d="M 370.862279 1070.397344 
L 706.37618 1227.560222 
" style="fill:none;stroke:#008000;"/>
    <path clip-path="url(#pcf134829a2)" d="M 370.862279 1070.397344 
L 769.623831 1227.560222 
" style="fill:none;stroke:#008000;"/>
    <path clip-path="url(#pcf134829a2)" d="M 370.862279 1070.397344 
L 832.372752 1219.669231 
" style="fill:none;stroke:#008000;"/>
    <path clip-path="url(#pcf134829a2)" d="M 370.862279 1070.397344 
L 893.633356 1204.011711 
" style="fill:none;stroke:#008000;"/>
    <path clip-path="url(#pcf134829a2)" d="M 370.862279 1070.397344 
L 952.43953 1180.834582 
" style="fill:none;stroke:#008000;"/>
    <path clip-path="url(#pcf134829a2)" d="M 416.967927 1113.496502 
L 468.136147 1150.503342 
" style="fill:none;stroke:#008000;"/>
    <path clip-path="url(#pcf134829a2)" d="M 416.967927 1113.496502 
L 523.560485 1180.834582 
" style="fill:none;stroke:#008000;"/>
    <path clip-path="url(#pcf134829a2)" d="M 416.967927 1113.496502 
L 582.366659 1204.011711 
" style="fill:none;stroke:#008000;"/>
    <path clip-path="url(#pcf134829a2)" d="M 416.967927 1113.496502 
L 643.627263 1219.669231 
" style="fill:none;stroke:#008000;"/>
    <path clip-path="url(#pcf134829a2)" d="M 416.967927 1113.496502 
L 706.37618 1227.560222 
" style="fill:none;stroke:#008000;"/>
    <path clip-path="url(#pcf134829a2)" d="M 416.967927 1113.496502 
L 769.623831 1227.560222 
" style="fill:none;stroke:#008000;"/>
    <path clip-path="url(#pcf134829a2)" d="M 416.967927 1113.496502 
L 832.372752 1219.669231 
" style="fill:none;stroke:#008000;"/>
    <path clip-path="url(#pcf134829a2)" d="M 416.967927 1113.496502 
L 893.633356 1204.011711 
" style="fill:none;stroke:#008000;"/>
    <path clip-path="url(#pcf134829a2)" d="M 416.967927 1113.496502 
L 952.43953 1180.834582 
" style="fill:none;stroke:#008000;"/>
    <path clip-path="url(#pcf134829a2)" d="M 416.967927 1113.496502 
L 1007.863673 1150.503461 
" style="fill:none;stroke:#008000;"/>
    <path clip-path="url(#pcf134829a2)" d="M 468.136147 1150.503342 
L 523.560485 1180.834582 
" style="fill:none;stroke:#008000;"/>
    <path clip-path="url(#pcf134829a2)" d="M 468.136147 1150.503342 
L 582.366659 1204.011711 
" style="fill:none;stroke:#008000;"/>
    <path clip-path="url(#pcf134829a2)" d="M 468.136147 1150.503342 
L 643.627263 1219.669231 
" style="fill:none;stroke:#008000;"/>
    <path clip-path="url(#pcf134829a2)" d="M 468.136147 1150.503342 
L 706.37618 1227.560222 
" style="fill:none;stroke:#008000;"/>
    <path clip-path="url(#pcf134829a2)" d="M 468.136147 1150.503342 
L 769.623831 1227.560222 
" style="fill:none;stroke:#008000;"/>
    <path clip-path="url(#pcf134829a2)" d="M 468.136147 1150.503342 
L 832.372752 1219.669231 
" style="fill:none;stroke:#008000;"/>
    <path clip-path="url(#pcf134829a2)" d="M 468.136147 1150.503342 
L 893.633356 1204.011711 
" style="fill:none;stroke:#008000;"/>
    <path clip-path="url(#pcf134829a2)" d="M 468.136147 1150.503342 
L 952.43953 1180.834582 
" style="fill:none;stroke:#008000;"/>
    <path clip-path="url(#pcf134829a2)" d="M 468.136147 1150.503342 
L 1007.863673 1150.503461 
" style="fill:none;stroke:#008000;"/>
    <path clip-path="url(#pcf134829a2)" d="M 468.136147 1150.503342 
L 1059.032103 1113.496502 
" style="fill:none;stroke:#008000;"/>
    <path clip-path="url(#pcf134829a2)" d="M 523.560485 1180.834582 
L 582.366659 1204.011711 
" style="fill:none;stroke:#008000;"/>
    <path clip-path="url(#pcf134829a2)" d="M 523.560485 1180.834582 
L 643.627263 1219.669231 
" style="fill:none;stroke:#008000;"/>
    <path clip-path="url(#pcf134829a2)" d="M 523.560485 1180.834582 
L 706.37618 1227.560222 
" style="fill:none;stroke:#008000;"/>
    <path clip-path="url(#pcf134829a2)" d="M 523.560485 1180.834582 
L 769.623831 1227.560222 
" style="fill:none;stroke:#008000;"/>
    <path clip-path="url(#pcf134829a2)" d="M 523.560485 1180.834582 
L 832.372752 1219.669231 
" style="fill:none;stroke:#008000;"/>
    <path clip-path="url(#pcf134829a2)" d="M 523.560485 1180.834582 
L 893.633356 1204.011711 
" style="fill:none;stroke:#008000;"/>
    <path clip-path="url(#pcf134829a2)" d="M 523.560485 1180.834582 
L 952.43953 1180.834582 
" style="fill:none;stroke:#008000;"/>
    <path clip-path="url(#pcf134829a2)" d="M 523.560485 1180.834582 
L 1007.863673 1150.503461 
" style="fill:none;stroke:#008000;"/>
    <path clip-path="url(#pcf134829a2)" d="M 523.560485 1180.834582 
L 1059.032103 1113.496502 
" style="fill:none;stroke:#008000;"/>
    <path clip-path="url(#pcf134829a2)" d="M 523.560485 1180.834582 
L 1105.137661 1070.397404 
" style="fill:none;stroke:#008000;"/>
    <path clip-path="url(#pcf134829a2)" d="M 582.366659 1204.011711 
L 643.627263 1219.669231 
" style="fill:none;stroke:#008000;"/>
    <path clip-path="url(#pcf134829a2)" d="M 582.366659 1204.011711 
L 706.37618 1227.560222 
" style="fill:none;stroke:#008000;"/>
    <path clip-path="url(#pcf134829a2)" d="M 582.366659 1204.011711 
L 769.623831 1227.560222 
" style="fill:none;stroke:#008000;"/>
    <path clip-path="url(#pcf134829a2)" d="M 582.366659 1204.011711 
L 832.372752 1219.669231 
" style="fill:none;stroke:#008000;"/>
    <path clip-path="url(#pcf134829a2)" d="M 582.366659 1204.011711 
L 893.633356 1204.011711 
" style="fill:none;stroke:#008000;"/>
    <path clip-path="url(#pcf134829a2)" d="M 582.366659 1204.011711 
L 952.43953 1180.834582 
" style="fill:none;stroke:#008000;"/>
    <path clip-path="url(#pcf134829a2)" d="M 582.366659 1204.011711 
L 1007.863673 1150.503461 
" style="fill:none;stroke:#008000;"/>
    <path clip-path="url(#pcf134829a2)" d="M 582.366659 1204.011711 
L 1059.032103 1113.496502 
" style="fill:none;stroke:#008000;"/>
    <path clip-path="url(#pcf134829a2)" d="M 582.366659 1204.011711 
L 1105.137661 1070.397404 
" style="fill:none;stroke:#008000;"/>
    <path clip-path="url(#pcf134829a2)" d="M 582.366659 1204.011711 
L 1145.453221 1021.88588 
" style="fill:none;stroke:#008000;"/>
    <path clip-path="url(#pcf134829a2)" d="M 643.627263 1219.669231 
L 706.37618 1227.560222 
" style="fill:none;stroke:#008000;"/>
    <path clip-path="url(#pcf134829a2)" d="M 643.627263 1219.669231 
L 769.623831 1227.560222 
" style="fill:none;stroke:#008000;"/>
    <path clip-path="url(#pcf134829a2)" d="M 643.627263 1219.669231 
L 832.372752 1219.669231 
" style="fill:none;stroke:#008000;"/>
    <path clip-path="url(#pcf134829a2)" d="M 643.627263 1219.669231 
L 893.633356 1204.011711 
" style="fill:none;stroke:#008000;"/>
    <path clip-path="url(#pcf134829a2)" d="M 643.627263 1219.669231 
L 952.43953 1180.834582 
" style="fill:none;stroke:#008000;"/>
    <path clip-path="url(#pcf134829a2)" d="M 643.627263 1219.669231 
L 1007.863673 1150.503461 
" style="fill:none;stroke:#008000;"/>
    <path clip-path="url(#pcf134829a2)" d="M 643.627263 1219.669231 
L 1059.032103 1113.496502 
" style="fill:none;stroke:#008000;"/>
    <path clip-path="url(#pcf134829a2)" d="M 643.627263 1219.669231 
L 1105.137661 1070.397404 
" style="fill:none;stroke:#008000;"/>
    <path clip-path="url(#pcf134829a2)" d="M 643.627263 1219.669231 
L 1145.453221 1021.88588 
" style="fill:none;stroke:#008000;"/>
    <path clip-path="url(#pcf134829a2)" d="M 643.627263 1219.669231 
L 1179.343005 968.72699 
" style="fill:none;stroke:#008000;"/>
    <path clip-path="url(#pcf134829a2)" d="M 706.37618 1227.560222 
L 769.623831 1227.560222 
" style="fill:none;stroke:#008000;"/>
    <path clip-path="url(#pcf134829a2)" d="M 706.37618 1227.560222 
L 832.372752 1219.669231 
" style="fill:none;stroke:#008000;"/>
    <path clip-path="url(#pcf134829a2)" d="M 706.37618 1227.560222 
L 893.633356 1204.011711 
" style="fill:none;stroke:#008000;"/>
    <path clip-path="url(#pcf134829a2)" d="M 706.37618 1227.560222 
L 952.43953 1180.834582 
" style="fill:none;stroke:#008000;"/>
    <path clip-path="url(#pcf134829a2)" d="M 706.37618 1227.560222 
L 1007.863673 1150.503461 
" style="fill:none;stroke:#008000;"/>
    <path clip-path="url(#pcf134829a2)" d="M 706.37618 1227.560222 
L 1059.032103 1113.496502 
" style="fill:none;stroke:#008000;"/>
    <path clip-path="url(#pcf134829a2)" d="M 706.37618 1227.560222 
L 1105.137661 1070.397404 
" style="fill:none;stroke:#008000;"/>
    <path clip-path="url(#pcf134829a2)" d="M 706.37618 1227.560222 
L 1145.453221 1021.88588 
" style="fill:none;stroke:#008000;"/>
    <path clip-path="url(#pcf134829a2)" d="M 706.37618 1227.560222 
L 1179.343005 968.72699 
" style="fill:none;stroke:#008000;"/>
    <path clip-path="url(#pcf134829a2)" d="M 706.37618 1227.560222 
L 1206.272548 911.759064 
" style="fill:none;stroke:#008000;"/>
    <path clip-path="url(#pcf134829a2)" d="M 769.623831 1227.560222 
L 832.372752 1219.669231 
" style="fill:none;stroke:#008000;"/>
    <path clip-path="url(#pcf134829a2)" d="M 769.623831 1227.560222 
L 893.633356 1204.011711 
" style="fill:none;stroke:#008000;"/>
    <path clip-path="url(#pcf134829a2)" d="M 769.623831 1227.560222 
L 952.43953 1180.834582 
" style="fill:none;stroke:#008000;"/>
    <path clip-path="url(#pcf134829a2)" d="M 769.623831 1227.560222 
L 1007.863673 1150.503461 
" style="fill:none;stroke:#008000;"/>
    <path clip-path="url(#pcf134829a2)" d="M 769.623831 1227.560222 
L 1059.032103 1113.496502 
" style="fill:none;stroke:#008000;"/>
    <path clip-path="url(#pcf134829a2)" d="M 769.623831 1227.560222 
L 1105.137661 1070.397404 
" style="fill:none;stroke:#008000;"/>
    <path clip-path="url(#pcf134829a2)" d="M 769.623831 1227.560222 
L 1145.453221 1021.88588 
" style="fill:none;stroke:#008000;"/>
    <path clip-path="url(#pcf134829a2)" d="M 769.623831 1227.560222 
L 1179.343005 968.72699 
" style="fill:none;stroke:#008000;"/>
    <path clip-path="url(#pcf134829a2)" d="M 769.623831 1227.560222 
L 1206.272548 911.759064 
" style="fill:none;stroke:#008000;"/>
    <path clip-path="url(#pcf134829a2)" d="M 769.623831 1227.560222 
L 1225.81714 851.88052 
" style="fill:none;stroke:#008000;"/>
    <path clip-path="url(#pcf134829a2)" d="M 832.372752 1219.669231 
L 893.633356 1204.011711 
" style="fill:none;stroke:#008000;"/>
    <path clip-path="url(#pcf134829a2)" d="M 832.372752 1219.669231 
L 952.43953 1180.834582 
" style="fill:none;stroke:#008000;"/>
    <path clip-path="url(#pcf134829a2)" d="M 832.372752 1219.669231 
L 1007.863673 1150.503461 
" style="fill:none;stroke:#008000;"/>
    <path clip-path="url(#pcf134829a2)" d="M 832.372752 1219.669231 
L 1059.032103 1113.496502 
" style="fill:none;stroke:#008000;"/>
    <path clip-path="url(#pcf134829a2)" d="M 832.372752 1219.669231 
L 1105.137661 1070.397404 
" style="fill:none;stroke:#008000;"/>
    <path clip-path="url(#pcf134829a2)" d="M 832.372752 1219.669231 
L 1145.453221 1021.88588 
" style="fill:none;stroke:#008000;"/>
    <path clip-path="url(#pcf134829a2)" d="M 832.372752 1219.669231 
L 1179.343005 968.72699 
" style="fill:none;stroke:#008000;"/>
    <path clip-path="url(#pcf134829a2)" d="M 832.372752 1219.669231 
L 1206.272548 911.759064 
" style="fill:none;stroke:#008000;"/>
    <path clip-path="url(#pcf134829a2)" d="M 832.372752 1219.669231 
L 1225.81714 851.88052 
" style="fill:none;stroke:#008000;"/>
    <path clip-path="url(#pcf134829a2)" d="M 832.372752 1219.669231 
L 1237.668571 790.035697 
" style="fill:none;stroke:#008000;"/>
    <path clip-path="url(#pcf134829a2)" d="M 893.633356 1204.011711 
L 952.43953 1180.834582 
" style="fill:none;stroke:#008000;"/>
    <path clip-path="url(#pcf134829a2)" d="M 893.633356 1204.011711 
L 1007.863673 1150.503461 
" style="fill:none;stroke:#008000;"/>
    <path clip-path="url(#pcf134829a2)" d="M 893.633356 1204.011711 
L 1059.032103 1113.496502 
" style="fill:none;stroke:#008000;"/>
    <path clip-path="url(#pcf134829a2)" d="M 893.633356 1204.011711 
L 1105.137661 1070.397404 
" style="fill:none;stroke:#008000;"/>
    <path clip-path="url(#pcf134829a2)" d="M 893.633356 1204.011711 
L 1145.453221 1021.88588 
" style="fill:none;stroke:#008000;"/>
    <path clip-path="url(#pcf134829a2)" d="M 893.633356 1204.011711 
L 1179.343005 968.72699 
" style="fill:none;stroke:#008000;"/>
    <path clip-path="url(#pcf134829a2)" d="M 893.633356 1204.011711 
L 1206.272548 911.759064 
" style="fill:none;stroke:#008000;"/>
    <path clip-path="url(#pcf134829a2)" d="M 893.633356 1204.011711 
L 1225.81714 851.88052 
" style="fill:none;stroke:#008000;"/>
    <path clip-path="url(#pcf134829a2)" d="M 893.633356 1204.011711 
L 1237.668571 790.035697 
" style="fill:none;stroke:#008000;"/>
    <path clip-path="url(#pcf134829a2)" d="M 952.43953 1180.834582 
L 1007.863673 1150.503461 
" style="fill:none;stroke:#008000;"/>
    <path clip-path="url(#pcf134829a2)" d="M 952.43953 1180.834582 
L 1059.032103 1113.496502 
" style="fill:none;stroke:#008000;"/>
    <path clip-path="url(#pcf134829a2)" d="M 952.43953 1180.834582 
L 1105.137661 1070.397404 
" style="fill:none;stroke:#008000;"/>
    <path clip-path="url(#pcf134829a2)" d="M 952.43953 1180.834582 
L 1145.453221 1021.88588 
" style="fill:none;stroke:#008000;"/>
    <path clip-path="url(#pcf134829a2)" d="M 952.43953 1180.834582 
L 1179.343005 968.72699 
" style="fill:none;stroke:#008000;"/>
    <path clip-path="url(#pcf134829a2)" d="M 952.43953 1180.834582 
L 1206.272548 911.759064 
" style="fill:none;stroke:#008000;"/>
    <path clip-path="url(#pcf134829a2)" d="M 952.43953 1180.834582 
L 1225.81714 851.88052 
" style="fill:none;stroke:#008000;"/>
    <path clip-path="url(#pcf134829a2)" d="M 952.43953 1180.834582 
L 1237.668571 790.035697 
" style="fill:none;stroke:#008000;"/>
    <path clip-path="url(#pcf134829a2)" d="M 1007.863673 1150.503461 
L 1059.032103 1113.496502 
" style="fill:none;stroke:#008000;"/>
    <path clip-path="url(#pcf134829a2)" d="M 1007.863673 1150.503461 
L 1105.137661 1070.397404 
" style="fill:none;stroke:#008000;"/>
    <path clip-path="url(#pcf134829a2)" d="M 1007.863673 1150.503461 
L 1145.453221 1021.88588 
" style="fill:none;stroke:#008000;"/>
    <path clip-path="url(#pcf134829a2)" d="M 1007.863673 1150.503461 
L 1179.343005 968.72699 
" style="fill:none;stroke:#008000;"/>
    <path clip-path="url(#pcf134829a2)" d="M 1007.863673 1150.503461 
L 1206.272548 911.759064 
" style="fill:none;stroke:#008000;"/>
    <path clip-path="url(#pcf134829a2)" d="M 1007.863673 1150.503461 
L 1225.81714 851.88052 
" style="fill:none;stroke:#008000;"/>
    <path clip-path="url(#pcf134829a2)" d="M 1007.863673 1150.503461 
L 1237.668571 790.035697 
" style="fill:none;stroke:#008000;"/>
    <path clip-path="url(#pcf134829a2)" d="M 1059.032103 1113.496502 
L 1105.137661 1070.397404 
" style="fill:none;stroke:#008000;"/>
    <path clip-path="url(#pcf134829a2)" d="M 1059.032103 1113.496502 
L 1145.453221 1021.88588 
" style="fill:none;stroke:#008000;"/>
    <path clip-path="url(#pcf134829a2)" d="M 1059.032103 1113.496502 
L 1179.343005 968.72699 
" style="fill:none;stroke:#008000;"/>
    <path clip-path="url(#pcf134829a2)" d="M 1059.032103 1113.496502 
L 1206.272548 911.759064 
" style="fill:none;stroke:#008000;"/>
    <path clip-path="url(#pcf134829a2)" d="M 1059.032103 1113.496502 
L 1225.81714 851.88052 
" style="fill:none;stroke:#008000;"/>
    <path clip-path="url(#pcf134829a2)" d="M 1059.032103 1113.496502 
L 1237.668571 790.035697 
" style="fill:none;stroke:#008000;"/>
    <path clip-path="url(#pcf134829a2)" d="M 1105.137661 1070.397404 
L 1145.453221 1021.88588 
" style="fill:none;stroke:#008000;"/>
    <path clip-path="url(#pcf134829a2)" d="M 1105.137661 1070.397404 
L 1179.343005 968.72699 
" style="fill:none;stroke:#008000;"/>
    <path clip-path="url(#pcf134829a2)" d="M 1105.137661 1070.397404 
L 1206.272548 911.759064 
" style="fill:none;stroke:#008000;"/>
    <path clip-path="url(#pcf134829a2)" d="M 1105.137661 1070.397404 
L 1225.81714 851.88052 
" style="fill:none;stroke:#008000;"/>
    <path clip-path="url(#pcf134829a2)" d="M 1105.137661 1070.397404 
L 1237.668571 790.035697 
" style="fill:none;stroke:#008000;"/>
    <path clip-path="url(#pcf134829a2)" d="M 1145.453221 1021.88588 
L 1179.343005 968.72699 
" style="fill:none;stroke:#008000;"/>
    <path clip-path="url(#pcf134829a2)" d="M 1145.453221 1021.88588 
L 1206.272548 911.759064 
" style="fill:none;stroke:#008000;"/>
    <path clip-path="url(#pcf134829a2)" d="M 1145.453221 1021.88588 
L 1225.81714 851.88052 
" style="fill:none;stroke:#008000;"/>
    <path clip-path="url(#pcf134829a2)" d="M 1145.453221 1021.88588 
L 1237.668571 790.035697 
" style="fill:none;stroke:#008000;"/>
    <path clip-path="url(#pcf134829a2)" d="M 1179.343005 968.72699 
L 1206.272548 911.759064 
" style="fill:none;stroke:#008000;"/>
    <path clip-path="url(#pcf134829a2)" d="M 1179.343005 968.72699 
L 1225.81714 851.88052 
" style="fill:none;stroke:#008000;"/>
    <path clip-path="url(#pcf134829a2)" d="M 1179.343005 968.72699 
L 1237.668571 790.035697 
" style="fill:none;stroke:#008000;"/>
    <path clip-path="url(#pcf134829a2)" d="M 1206.272548 911.759064 
L 1225.81714 851.88052 
" style="fill:none;stroke:#008000;"/>
    <path clip-path="url(#pcf134829a2)" d="M 1206.272548 911.759064 
L 1237.668571 790.035697 
" style="fill:none;stroke:#008000;"/>
    <path clip-path="url(#pcf134829a2)" d="M 1225.81714 851.88052 
L 1237.668571 790.035697 
" style="fill:none;stroke:#008000;"/>
   </g>
   <g id="PathCollection_1">
    <defs>
     <path d="M 0 11.18034 
C 2.965061 11.18034 5.80908 10.002309 7.905694 7.905694 
C 10.002309 5.80908 11.18034 2.965061 11.18034 0 
C 11.18034 -2.965061 10.002309 -5.80908 7.905694 -7.905694 
C 5.80908 -10.002309 2.965061 -11.18034 0 -11.18034 
C -2.965061 -11.18034 -5.80908 -10.002309 -7.905694 -7.905694 
C -10.002309 -5.80908 -11.18034 -2.965061 -11.18034 0 
C -11.18034 2.965061 -10.002309 5.80908 -7.905694 7.905694 
C -5.80908 10.002309 -2.965061 11.18034 0 11.18034 
z
" id="m7752d98e5c" style="stroke:#ffff00;"/>
    </defs>
    <g clip-path="url(#pcf134829a2)">
     <use style="fill:#ffff00;stroke:#ffff00;" x="1241.639911" xlink:href="#m7752d98e5c" y="727.2"/>
     <use style="fill:#ffff00;stroke:#ffff00;" x="1237.668571" xlink:href="#m7752d98e5c" y="664.364243"/>
     <use style="fill:#ffff00;stroke:#ffff00;" x="1225.81714" xlink:href="#m7752d98e5c" y="602.519435"/>
     <use style="fill:#ffff00;stroke:#ffff00;" x="1206.272548" xlink:href="#m7752d98e5c" y="542.640936"/>
     <use style="fill:#ffff00;stroke:#ffff00;" x="1179.343005" xlink:href="#m7752d98e5c" y="485.67301"/>
     <use style="fill:#ffff00;stroke:#ffff00;" x="1145.453251" xlink:href="#m7752d98e5c" y="432.51415"/>
     <use style="fill:#ffff00;stroke:#ffff00;" x="1105.137691" xlink:href="#m7752d98e5c" y="384.002626"/>
     <use style="fill:#ffff00;stroke:#ffff00;" x="1059.032163" xlink:href="#m7752d98e5c" y="340.903558"/>
     <use style="fill:#ffff00;stroke:#ffff00;" x="1007.863733" xlink:href="#m7752d98e5c" y="303.896599"/>
     <use style="fill:#ffff00;stroke:#ffff00;" x="952.439455" xlink:href="#m7752d98e5c" y="273.565388"/>
     <use style="fill:#ffff00;stroke:#ffff00;" x="893.633281" xlink:href="#m7752d98e5c" y="250.38826"/>
     <use style="fill:#ffff00;stroke:#ffff00;" x="832.372722" xlink:href="#m7752d98e5c" y="234.730769"/>
     <use style="fill:#ffff00;stroke:#ffff00;" x="769.623801" xlink:href="#m7752d98e5c" y="226.839778"/>
     <use style="fill:#ffff00;stroke:#ffff00;" x="706.376214" xlink:href="#m7752d98e5c" y="226.839778"/>
     <use style="fill:#ffff00;stroke:#ffff00;" x="643.627293" xlink:href="#m7752d98e5c" y="234.730769"/>
     <use style="fill:#ffff00;stroke:#ffff00;" x="582.366689" xlink:href="#m7752d98e5c" y="250.388289"/>
     <use style="fill:#ffff00;stroke:#ffff00;" x="523.560515" xlink:href="#m7752d98e5c" y="273.565418"/>
     <use style="fill:#ffff00;stroke:#ffff00;" x="468.136267" xlink:href="#m7752d98e5c" y="303.896569"/>
     <use style="fill:#ffff00;stroke:#ffff00;" x="416.967837" xlink:href="#m7752d98e5c" y="340.903558"/>
     <use style="fill:#ffff00;stroke:#ffff00;" x="370.862309" xlink:href="#m7752d98e5c" y="384.002656"/>
     <use style="fill:#ffff00;stroke:#ffff00;" x="330.546719" xlink:href="#m7752d98e5c" y="432.51418"/>
     <use style="fill:#ffff00;stroke:#ffff00;" x="296.656995" xlink:href="#m7752d98e5c" y="485.67298"/>
     <use style="fill:#ffff00;stroke:#ffff00;" x="269.727452" xlink:href="#m7752d98e5c" y="542.640906"/>
     <use style="fill:#ffff00;stroke:#ffff00;" x="250.18286" xlink:href="#m7752d98e5c" y="602.519435"/>
     <use style="fill:#ffff00;stroke:#ffff00;" x="238.331429" xlink:href="#m7752d98e5c" y="664.364258"/>
     <use style="fill:#ffff00;stroke:#ffff00;" x="234.360089" xlink:href="#m7752d98e5c" y="727.200044"/>
     <use style="fill:#ffff00;stroke:#ffff00;" x="238.331429" xlink:href="#m7752d98e5c" y="790.035705"/>
     <use style="fill:#ffff00;stroke:#ffff00;" x="250.18286" xlink:href="#m7752d98e5c" y="851.880535"/>
     <use style="fill:#ffff00;stroke:#ffff00;" x="269.727452" xlink:href="#m7752d98e5c" y="911.759064"/>
     <use style="fill:#ffff00;stroke:#ffff00;" x="296.656995" xlink:href="#m7752d98e5c" y="968.72699"/>
     <use style="fill:#ffff00;stroke:#ffff00;" x="330.546779" xlink:href="#m7752d98e5c" y="1021.88591"/>
     <use style="fill:#ffff00;stroke:#ffff00;" x="370.862279" xlink:href="#m7752d98e5c" y="1070.397344"/>
     <use style="fill:#ffff00;stroke:#ffff00;" x="416.967927" xlink:href="#m7752d98e5c" y="1113.496502"/>
     <use style="fill:#ffff00;stroke:#ffff00;" x="468.136147" xlink:href="#m7752d98e5c" y="1150.503342"/>
     <use style="fill:#ffff00;stroke:#ffff00;" x="523.560485" xlink:href="#m7752d98e5c" y="1180.834582"/>
     <use style="fill:#ffff00;stroke:#ffff00;" x="582.366659" xlink:href="#m7752d98e5c" y="1204.011711"/>
     <use style="fill:#ffff00;stroke:#ffff00;" x="643.627263" xlink:href="#m7752d98e5c" y="1219.669231"/>
     <use style="fill:#ffff00;stroke:#ffff00;" x="706.37618" xlink:href="#m7752d98e5c" y="1227.560222"/>
     <use style="fill:#ffff00;stroke:#ffff00;" x="769.623831" xlink:href="#m7752d98e5c" y="1227.560222"/>
     <use style="fill:#ffff00;stroke:#ffff00;" x="832.372752" xlink:href="#m7752d98e5c" y="1219.669231"/>
     <use style="fill:#ffff00;stroke:#ffff00;" x="893.633356" xlink:href="#m7752d98e5c" y="1204.011711"/>
     <use style="fill:#ffff00;stroke:#ffff00;" x="952.43953" xlink:href="#m7752d98e5c" y="1180.834582"/>
     <use style="fill:#ffff00;stroke:#ffff00;" x="1007.863673" xlink:href="#m7752d98e5c" y="1150.503461"/>
     <use style="fill:#ffff00;stroke:#ffff00;" x="1059.032103" xlink:href="#m7752d98e5c" y="1113.496502"/>
     <use style="fill:#ffff00;stroke:#ffff00;" x="1105.137661" xlink:href="#m7752d98e5c" y="1070.397404"/>
     <use style="fill:#ffff00;stroke:#ffff00;" x="1145.453221" xlink:href="#m7752d98e5c" y="1021.88588"/>
     <use style="fill:#ffff00;stroke:#ffff00;" x="1179.343005" xlink:href="#m7752d98e5c" y="968.72699"/>
     <use style="fill:#ffff00;stroke:#ffff00;" x="1206.272548" xlink:href="#m7752d98e5c" y="911.759064"/>
     <use style="fill:#ffff00;stroke:#ffff00;" x="1225.81714" xlink:href="#m7752d98e5c" y="851.88052"/>
     <use style="fill:#ffff00;stroke:#ffff00;" x="1237.668571" xlink:href="#m7752d98e5c" y="790.035697"/>
    </g>
   </g>
   <g id="text_1">
    <g clip-path="url(#pcf134829a2)">
     <!-- 1 -->
     <defs>
      <path d="M 12.40625 8.296875 
L 28.515625 8.296875 
L 28.515625 63.921875 
L 10.984375 60.40625 
L 10.984375 69.390625 
L 28.421875 72.90625 
L 38.28125 72.90625 
L 38.28125 8.296875 
L 54.390625 8.296875 
L 54.390625 0 
L 12.40625 0 
z
" id="DejaVuSans-49"/>
     </defs>
     <g transform="translate(1237.822411 730.51125)scale(0.12 -0.12)">
      <use xlink:href="#DejaVuSans-49"/>
     </g>
    </g>
   </g>
   <g id="text_2">
    <g clip-path="url(#pcf134829a2)">
     <!-- 2 -->
     <defs>
      <path d="M 19.1875 8.296875 
L 53.609375 8.296875 
L 53.609375 0 
L 7.328125 0 
L 7.328125 8.296875 
Q 12.9375 14.109375 22.625 23.890625 
Q 32.328125 33.6875 34.8125 36.53125 
Q 39.546875 41.84375 41.421875 45.53125 
Q 43.3125 49.21875 43.3125 52.78125 
Q 43.3125 58.59375 39.234375 62.25 
Q 35.15625 65.921875 28.609375 65.921875 
Q 23.96875 65.921875 18.8125 64.3125 
Q 13.671875 62.703125 7.8125 59.421875 
L 7.8125 69.390625 
Q 13.765625 71.78125 18.9375 73 
Q 24.125 74.21875 28.421875 74.21875 
Q 39.75 74.21875 46.484375 68.546875 
Q 53.21875 62.890625 53.21875 53.421875 
Q 53.21875 48.921875 51.53125 44.890625 
Q 49.859375 40.875 45.40625 35.40625 
Q 44.1875 33.984375 37.640625 27.21875 
Q 31.109375 20.453125 19.1875 8.296875 
z
" id="DejaVuSans-50"/>
     </defs>
     <g transform="translate(1233.851071 667.675493)scale(0.12 -0.12)">
      <use xlink:href="#DejaVuSans-50"/>
     </g>
    </g>
   </g>
   <g id="text_3">
    <g clip-path="url(#pcf134829a2)">
     <!-- 3 -->
     <defs>
      <path d="M 40.578125 39.3125 
Q 47.65625 37.796875 51.625 33 
Q 55.609375 28.21875 55.609375 21.1875 
Q 55.609375 10.40625 48.1875 4.484375 
Q 40.765625 -1.421875 27.09375 -1.421875 
Q 22.515625 -1.421875 17.65625 -0.515625 
Q 12.796875 0.390625 7.625 2.203125 
L 7.625 11.71875 
Q 11.71875 9.328125 16.59375 8.109375 
Q 21.484375 6.890625 26.8125 6.890625 
Q 36.078125 6.890625 40.9375 10.546875 
Q 45.796875 14.203125 45.796875 21.1875 
Q 45.796875 27.640625 41.28125 31.265625 
Q 36.765625 34.90625 28.71875 34.90625 
L 20.21875 34.90625 
L 20.21875 43.015625 
L 29.109375 43.015625 
Q 36.375 43.015625 40.234375 45.921875 
Q 44.09375 48.828125 44.09375 54.296875 
Q 44.09375 59.90625 40.109375 62.90625 
Q 36.140625 65.921875 28.71875 65.921875 
Q 24.65625 65.921875 20.015625 65.03125 
Q 15.375 64.15625 9.8125 62.3125 
L 9.8125 71.09375 
Q 15.4375 72.65625 20.34375 73.4375 
Q 25.25 74.21875 29.59375 74.21875 
Q 40.828125 74.21875 47.359375 69.109375 
Q 53.90625 64.015625 53.90625 55.328125 
Q 53.90625 49.265625 50.4375 45.09375 
Q 46.96875 40.921875 40.578125 39.3125 
z
" id="DejaVuSans-51"/>
     </defs>
     <g transform="translate(1221.99964 605.830685)scale(0.12 -0.12)">
      <use xlink:href="#DejaVuSans-51"/>
     </g>
    </g>
   </g>
   <g id="text_4">
    <g clip-path="url(#pcf134829a2)">
     <!-- 4 -->
     <defs>
      <path d="M 37.796875 64.3125 
L 12.890625 25.390625 
L 37.796875 25.390625 
z
M 35.203125 72.90625 
L 47.609375 72.90625 
L 47.609375 25.390625 
L 58.015625 25.390625 
L 58.015625 17.1875 
L 47.609375 17.1875 
L 47.609375 0 
L 37.796875 0 
L 37.796875 17.1875 
L 4.890625 17.1875 
L 4.890625 26.703125 
z
" id="DejaVuSans-52"/>
     </defs>
     <g transform="translate(1202.455048 545.952186)scale(0.12 -0.12)">
      <use xlink:href="#DejaVuSans-52"/>
     </g>
    </g>
   </g>
   <g id="text_5">
    <g clip-path="url(#pcf134829a2)">
     <!-- 5 -->
     <defs>
      <path d="M 10.796875 72.90625 
L 49.515625 72.90625 
L 49.515625 64.59375 
L 19.828125 64.59375 
L 19.828125 46.734375 
Q 21.96875 47.46875 24.109375 47.828125 
Q 26.265625 48.1875 28.421875 48.1875 
Q 40.625 48.1875 47.75 41.5 
Q 54.890625 34.8125 54.890625 23.390625 
Q 54.890625 11.625 47.5625 5.09375 
Q 40.234375 -1.421875 26.90625 -1.421875 
Q 22.3125 -1.421875 17.546875 -0.640625 
Q 12.796875 0.140625 7.71875 1.703125 
L 7.71875 11.625 
Q 12.109375 9.234375 16.796875 8.0625 
Q 21.484375 6.890625 26.703125 6.890625 
Q 35.15625 6.890625 40.078125 11.328125 
Q 45.015625 15.765625 45.015625 23.390625 
Q 45.015625 31 40.078125 35.4375 
Q 35.15625 39.890625 26.703125 39.890625 
Q 22.75 39.890625 18.8125 39.015625 
Q 14.890625 38.140625 10.796875 36.28125 
z
" id="DejaVuSans-53"/>
     </defs>
     <g transform="translate(1175.525505 488.98426)scale(0.12 -0.12)">
      <use xlink:href="#DejaVuSans-53"/>
     </g>
    </g>
   </g>
   <g id="text_6">
    <g clip-path="url(#pcf134829a2)">
     <!-- 6 -->
     <defs>
      <path d="M 33.015625 40.375 
Q 26.375 40.375 22.484375 35.828125 
Q 18.609375 31.296875 18.609375 23.390625 
Q 18.609375 15.53125 22.484375 10.953125 
Q 26.375 6.390625 33.015625 6.390625 
Q 39.65625 6.390625 43.53125 10.953125 
Q 47.40625 15.53125 47.40625 23.390625 
Q 47.40625 31.296875 43.53125 35.828125 
Q 39.65625 40.375 33.015625 40.375 
z
M 52.59375 71.296875 
L 52.59375 62.3125 
Q 48.875 64.0625 45.09375 64.984375 
Q 41.3125 65.921875 37.59375 65.921875 
Q 27.828125 65.921875 22.671875 59.328125 
Q 17.53125 52.734375 16.796875 39.40625 
Q 19.671875 43.65625 24.015625 45.921875 
Q 28.375 48.1875 33.59375 48.1875 
Q 44.578125 48.1875 50.953125 41.515625 
Q 57.328125 34.859375 57.328125 23.390625 
Q 57.328125 12.15625 50.6875 5.359375 
Q 44.046875 -1.421875 33.015625 -1.421875 
Q 20.359375 -1.421875 13.671875 8.265625 
Q 6.984375 17.96875 6.984375 36.375 
Q 6.984375 53.65625 15.1875 63.9375 
Q 23.390625 74.21875 37.203125 74.21875 
Q 40.921875 74.21875 44.703125 73.484375 
Q 48.484375 72.75 52.59375 71.296875 
z
" id="DejaVuSans-54"/>
     </defs>
     <g transform="translate(1141.635751 435.8254)scale(0.12 -0.12)">
      <use xlink:href="#DejaVuSans-54"/>
     </g>
    </g>
   </g>
   <g id="text_7">
    <g clip-path="url(#pcf134829a2)">
     <!-- 7 -->
     <defs>
      <path d="M 8.203125 72.90625 
L 55.078125 72.90625 
L 55.078125 68.703125 
L 28.609375 0 
L 18.3125 0 
L 43.21875 64.59375 
L 8.203125 64.59375 
z
" id="DejaVuSans-55"/>
     </defs>
     <g transform="translate(1101.320191 387.313876)scale(0.12 -0.12)">
      <use xlink:href="#DejaVuSans-55"/>
     </g>
    </g>
   </g>
   <g id="text_8">
    <g clip-path="url(#pcf134829a2)">
     <!-- 8 -->
     <defs>
      <path d="M 31.78125 34.625 
Q 24.75 34.625 20.71875 30.859375 
Q 16.703125 27.09375 16.703125 20.515625 
Q 16.703125 13.921875 20.71875 10.15625 
Q 24.75 6.390625 31.78125 6.390625 
Q 38.8125 6.390625 42.859375 10.171875 
Q 46.921875 13.96875 46.921875 20.515625 
Q 46.921875 27.09375 42.890625 30.859375 
Q 38.875 34.625 31.78125 34.625 
z
M 21.921875 38.8125 
Q 15.578125 40.375 12.03125 44.71875 
Q 8.5 49.078125 8.5 55.328125 
Q 8.5 64.0625 14.71875 69.140625 
Q 20.953125 74.21875 31.78125 74.21875 
Q 42.671875 74.21875 48.875 69.140625 
Q 55.078125 64.0625 55.078125 55.328125 
Q 55.078125 49.078125 51.53125 44.71875 
Q 48 40.375 41.703125 38.8125 
Q 48.828125 37.15625 52.796875 32.3125 
Q 56.78125 27.484375 56.78125 20.515625 
Q 56.78125 9.90625 50.3125 4.234375 
Q 43.84375 -1.421875 31.78125 -1.421875 
Q 19.734375 -1.421875 13.25 4.234375 
Q 6.78125 9.90625 6.78125 20.515625 
Q 6.78125 27.484375 10.78125 32.3125 
Q 14.796875 37.15625 21.921875 38.8125 
z
M 18.3125 54.390625 
Q 18.3125 48.734375 21.84375 45.5625 
Q 25.390625 42.390625 31.78125 42.390625 
Q 38.140625 42.390625 41.71875 45.5625 
Q 45.3125 48.734375 45.3125 54.390625 
Q 45.3125 60.0625 41.71875 63.234375 
Q 38.140625 66.40625 31.78125 66.40625 
Q 25.390625 66.40625 21.84375 63.234375 
Q 18.3125 60.0625 18.3125 54.390625 
z
" id="DejaVuSans-56"/>
     </defs>
     <g transform="translate(1055.214663 344.214808)scale(0.12 -0.12)">
      <use xlink:href="#DejaVuSans-56"/>
     </g>
    </g>
   </g>
   <g id="text_9">
    <g clip-path="url(#pcf134829a2)">
     <!-- 9 -->
     <defs>
      <path d="M 10.984375 1.515625 
L 10.984375 10.5 
Q 14.703125 8.734375 18.5 7.8125 
Q 22.3125 6.890625 25.984375 6.890625 
Q 35.75 6.890625 40.890625 13.453125 
Q 46.046875 20.015625 46.78125 33.40625 
Q 43.953125 29.203125 39.59375 26.953125 
Q 35.25 24.703125 29.984375 24.703125 
Q 19.046875 24.703125 12.671875 31.3125 
Q 6.296875 37.9375 6.296875 49.421875 
Q 6.296875 60.640625 12.9375 67.421875 
Q 19.578125 74.21875 30.609375 74.21875 
Q 43.265625 74.21875 49.921875 64.515625 
Q 56.59375 54.828125 56.59375 36.375 
Q 56.59375 19.140625 48.40625 8.859375 
Q 40.234375 -1.421875 26.421875 -1.421875 
Q 22.703125 -1.421875 18.890625 -0.6875 
Q 15.09375 0.046875 10.984375 1.515625 
z
M 30.609375 32.421875 
Q 37.25 32.421875 41.125 36.953125 
Q 45.015625 41.5 45.015625 49.421875 
Q 45.015625 57.28125 41.125 61.84375 
Q 37.25 66.40625 30.609375 66.40625 
Q 23.96875 66.40625 20.09375 61.84375 
Q 16.21875 57.28125 16.21875 49.421875 
Q 16.21875 41.5 20.09375 36.953125 
Q 23.96875 32.421875 30.609375 32.421875 
z
" id="DejaVuSans-57"/>
     </defs>
     <g transform="translate(1004.046233 307.207849)scale(0.12 -0.12)">
      <use xlink:href="#DejaVuSans-57"/>
     </g>
    </g>
   </g>
   <g id="text_10">
    <g clip-path="url(#pcf134829a2)">
     <!-- 10 -->
     <defs>
      <path d="M 31.78125 66.40625 
Q 24.171875 66.40625 20.328125 58.90625 
Q 16.5 51.421875 16.5 36.375 
Q 16.5 21.390625 20.328125 13.890625 
Q 24.171875 6.390625 31.78125 6.390625 
Q 39.453125 6.390625 43.28125 13.890625 
Q 47.125 21.390625 47.125 36.375 
Q 47.125 51.421875 43.28125 58.90625 
Q 39.453125 66.40625 31.78125 66.40625 
z
M 31.78125 74.21875 
Q 44.046875 74.21875 50.515625 64.515625 
Q 56.984375 54.828125 56.984375 36.375 
Q 56.984375 17.96875 50.515625 8.265625 
Q 44.046875 -1.421875 31.78125 -1.421875 
Q 19.53125 -1.421875 13.0625 8.265625 
Q 6.59375 17.96875 6.59375 36.375 
Q 6.59375 54.828125 13.0625 64.515625 
Q 19.53125 74.21875 31.78125 74.21875 
z
" id="DejaVuSans-48"/>
     </defs>
     <g transform="translate(944.804455 276.876638)scale(0.12 -0.12)">
      <use xlink:href="#DejaVuSans-49"/>
      <use x="63.623047" xlink:href="#DejaVuSans-48"/>
     </g>
    </g>
   </g>
   <g id="text_11">
    <g clip-path="url(#pcf134829a2)">
     <!-- 11 -->
     <g transform="translate(885.998281 253.69951)scale(0.12 -0.12)">
      <use xlink:href="#DejaVuSans-49"/>
      <use x="63.623047" xlink:href="#DejaVuSans-49"/>
     </g>
    </g>
   </g>
   <g id="text_12">
    <g clip-path="url(#pcf134829a2)">
     <!-- 12 -->
     <g transform="translate(824.737722 238.042019)scale(0.12 -0.12)">
      <use xlink:href="#DejaVuSans-49"/>
      <use x="63.623047" xlink:href="#DejaVuSans-50"/>
     </g>
    </g>
   </g>
   <g id="text_13">
    <g clip-path="url(#pcf134829a2)">
     <!-- 13 -->
     <g transform="translate(761.988801 230.151028)scale(0.12 -0.12)">
      <use xlink:href="#DejaVuSans-49"/>
      <use x="63.623047" xlink:href="#DejaVuSans-51"/>
     </g>
    </g>
   </g>
   <g id="text_14">
    <g clip-path="url(#pcf134829a2)">
     <!-- 14 -->
     <g transform="translate(698.741214 230.151028)scale(0.12 -0.12)">
      <use xlink:href="#DejaVuSans-49"/>
      <use x="63.623047" xlink:href="#DejaVuSans-52"/>
     </g>
    </g>
   </g>
   <g id="text_15">
    <g clip-path="url(#pcf134829a2)">
     <!-- 15 -->
     <g transform="translate(635.992293 238.042019)scale(0.12 -0.12)">
      <use xlink:href="#DejaVuSans-49"/>
      <use x="63.623047" xlink:href="#DejaVuSans-53"/>
     </g>
    </g>
   </g>
   <g id="text_16">
    <g clip-path="url(#pcf134829a2)">
     <!-- 16 -->
     <g transform="translate(574.731689 253.699539)scale(0.12 -0.12)">
      <use xlink:href="#DejaVuSans-49"/>
      <use x="63.623047" xlink:href="#DejaVuSans-54"/>
     </g>
    </g>
   </g>
   <g id="text_17">
    <g clip-path="url(#pcf134829a2)">
     <!-- 17 -->
     <g transform="translate(515.925515 276.876668)scale(0.12 -0.12)">
      <use xlink:href="#DejaVuSans-49"/>
      <use x="63.623047" xlink:href="#DejaVuSans-55"/>
     </g>
    </g>
   </g>
   <g id="text_18">
    <g clip-path="url(#pcf134829a2)">
     <!-- 18 -->
     <g transform="translate(460.501267 307.207819)scale(0.12 -0.12)">
      <use xlink:href="#DejaVuSans-49"/>
      <use x="63.623047" xlink:href="#DejaVuSans-56"/>
     </g>
    </g>
   </g>
   <g id="text_19">
    <g clip-path="url(#pcf134829a2)">
     <!-- 19 -->
     <g transform="translate(409.332837 344.214808)scale(0.12 -0.12)">
      <use xlink:href="#DejaVuSans-49"/>
      <use x="63.623047" xlink:href="#DejaVuSans-57"/>
     </g>
    </g>
   </g>
   <g id="text_20">
    <g clip-path="url(#pcf134829a2)">
     <!-- 20 -->
     <g transform="translate(363.227309 387.313906)scale(0.12 -0.12)">
      <use xlink:href="#DejaVuSans-50"/>
      <use x="63.623047" xlink:href="#DejaVuSans-48"/>
     </g>
    </g>
   </g>
   <g id="text_21">
    <g clip-path="url(#pcf134829a2)">
     <!-- 21 -->
     <g transform="translate(322.911719 435.82543)scale(0.12 -0.12)">
      <use xlink:href="#DejaVuSans-50"/>
      <use x="63.623047" xlink:href="#DejaVuSans-49"/>
     </g>
    </g>
   </g>
   <g id="text_22">
    <g clip-path="url(#pcf134829a2)">
     <!-- 22 -->
     <g transform="translate(289.021995 488.98423)scale(0.12 -0.12)">
      <use xlink:href="#DejaVuSans-50"/>
      <use x="63.623047" xlink:href="#DejaVuSans-50"/>
     </g>
    </g>
   </g>
   <g id="text_23">
    <g clip-path="url(#pcf134829a2)">
     <!-- 23 -->
     <g transform="translate(262.092452 545.952156)scale(0.12 -0.12)">
      <use xlink:href="#DejaVuSans-50"/>
      <use x="63.623047" xlink:href="#DejaVuSans-51"/>
     </g>
    </g>
   </g>
   <g id="text_24">
    <g clip-path="url(#pcf134829a2)">
     <!-- 24 -->
     <g transform="translate(242.54786 605.830685)scale(0.12 -0.12)">
      <use xlink:href="#DejaVuSans-50"/>
      <use x="63.623047" xlink:href="#DejaVuSans-52"/>
     </g>
    </g>
   </g>
   <g id="text_25">
    <g clip-path="url(#pcf134829a2)">
     <!-- 25 -->
     <g transform="translate(230.696429 667.675508)scale(0.12 -0.12)">
      <use xlink:href="#DejaVuSans-50"/>
      <use x="63.623047" xlink:href="#DejaVuSans-53"/>
     </g>
    </g>
   </g>
   <g id="text_26">
    <g clip-path="url(#pcf134829a2)">
     <!-- 26 -->
     <g transform="translate(226.725089 730.511294)scale(0.12 -0.12)">
      <use xlink:href="#DejaVuSans-50"/>
      <use x="63.623047" xlink:href="#DejaVuSans-54"/>
     </g>
    </g>
   </g>
   <g id="text_27">
    <g clip-path="url(#pcf134829a2)">
     <!-- 27 -->
     <g transform="translate(230.696429 793.346955)scale(0.12 -0.12)">
      <use xlink:href="#DejaVuSans-50"/>
      <use x="63.623047" xlink:href="#DejaVuSans-55"/>
     </g>
    </g>
   </g>
   <g id="text_28">
    <g clip-path="url(#pcf134829a2)">
     <!-- 28 -->
     <g transform="translate(242.54786 855.191785)scale(0.12 -0.12)">
      <use xlink:href="#DejaVuSans-50"/>
      <use x="63.623047" xlink:href="#DejaVuSans-56"/>
     </g>
    </g>
   </g>
   <g id="text_29">
    <g clip-path="url(#pcf134829a2)">
     <!-- 29 -->
     <g transform="translate(262.092452 915.070314)scale(0.12 -0.12)">
      <use xlink:href="#DejaVuSans-50"/>
      <use x="63.623047" xlink:href="#DejaVuSans-57"/>
     </g>
    </g>
   </g>
   <g id="text_30">
    <g clip-path="url(#pcf134829a2)">
     <!-- 30 -->
     <g transform="translate(289.021995 972.03824)scale(0.12 -0.12)">
      <use xlink:href="#DejaVuSans-51"/>
      <use x="63.623047" xlink:href="#DejaVuSans-48"/>
     </g>
    </g>
   </g>
   <g id="text_31">
    <g clip-path="url(#pcf134829a2)">
     <!-- 31 -->
     <g transform="translate(322.911779 1025.19716)scale(0.12 -0.12)">
      <use xlink:href="#DejaVuSans-51"/>
      <use x="63.623047" xlink:href="#DejaVuSans-49"/>
     </g>
    </g>
   </g>
   <g id="text_32">
    <g clip-path="url(#pcf134829a2)">
     <!-- 32 -->
     <g transform="translate(363.227279 1073.708594)scale(0.12 -0.12)">
      <use xlink:href="#DejaVuSans-51"/>
      <use x="63.623047" xlink:href="#DejaVuSans-50"/>
     </g>
    </g>
   </g>
   <g id="text_33">
    <g clip-path="url(#pcf134829a2)">
     <!-- 33 -->
     <g transform="translate(409.332927 1116.807752)scale(0.12 -0.12)">
      <use xlink:href="#DejaVuSans-51"/>
      <use x="63.623047" xlink:href="#DejaVuSans-51"/>
     </g>
    </g>
   </g>
   <g id="text_34">
    <g clip-path="url(#pcf134829a2)">
     <!-- 34 -->
     <g transform="translate(460.501147 1153.814592)scale(0.12 -0.12)">
      <use xlink:href="#DejaVuSans-51"/>
      <use x="63.623047" xlink:href="#DejaVuSans-52"/>
     </g>
    </g>
   </g>
   <g id="text_35">
    <g clip-path="url(#pcf134829a2)">
     <!-- 35 -->
     <g transform="translate(515.925485 1184.145832)scale(0.12 -0.12)">
      <use xlink:href="#DejaVuSans-51"/>
      <use x="63.623047" xlink:href="#DejaVuSans-53"/>
     </g>
    </g>
   </g>
   <g id="text_36">
    <g clip-path="url(#pcf134829a2)">
     <!-- 36 -->
     <g transform="translate(574.731659 1207.322961)scale(0.12 -0.12)">
      <use xlink:href="#DejaVuSans-51"/>
      <use x="63.623047" xlink:href="#DejaVuSans-54"/>
     </g>
    </g>
   </g>
   <g id="text_37">
    <g clip-path="url(#pcf134829a2)">
     <!-- 37 -->
     <g transform="translate(635.992263 1222.980481)scale(0.12 -0.12)">
      <use xlink:href="#DejaVuSans-51"/>
      <use x="63.623047" xlink:href="#DejaVuSans-55"/>
     </g>
    </g>
   </g>
   <g id="text_38">
    <g clip-path="url(#pcf134829a2)">
     <!-- 38 -->
     <g transform="translate(698.74118 1230.871472)scale(0.12 -0.12)">
      <use xlink:href="#DejaVuSans-51"/>
      <use x="63.623047" xlink:href="#DejaVuSans-56"/>
     </g>
    </g>
   </g>
   <g id="text_39">
    <g clip-path="url(#pcf134829a2)">
     <!-- 39 -->
     <g transform="translate(761.988831 1230.871472)scale(0.12 -0.12)">
      <use xlink:href="#DejaVuSans-51"/>
      <use x="63.623047" xlink:href="#DejaVuSans-57"/>
     </g>
    </g>
   </g>
   <g id="text_40">
    <g clip-path="url(#pcf134829a2)">
     <!-- 40 -->
     <g transform="translate(824.737752 1222.980481)scale(0.12 -0.12)">
      <use xlink:href="#DejaVuSans-52"/>
      <use x="63.623047" xlink:href="#DejaVuSans-48"/>
     </g>
    </g>
   </g>
   <g id="text_41">
    <g clip-path="url(#pcf134829a2)">
     <!-- 41 -->
     <g transform="translate(885.998356 1207.322961)scale(0.12 -0.12)">
      <use xlink:href="#DejaVuSans-52"/>
      <use x="63.623047" xlink:href="#DejaVuSans-49"/>
     </g>
    </g>
   </g>
   <g id="text_42">
    <g clip-path="url(#pcf134829a2)">
     <!-- 42 -->
     <g transform="translate(944.80453 1184.145832)scale(0.12 -0.12)">
      <use xlink:href="#DejaVuSans-52"/>
      <use x="63.623047" xlink:href="#DejaVuSans-50"/>
     </g>
    </g>
   </g>
   <g id="text_43">
    <g clip-path="url(#pcf134829a2)">
     <!-- 43 -->
     <g transform="translate(1000.228673 1153.814711)scale(0.12 -0.12)">
      <use xlink:href="#DejaVuSans-52"/>
      <use x="63.623047" xlink:href="#DejaVuSans-51"/>
     </g>
    </g>
   </g>
   <g id="text_44">
    <g clip-path="url(#pcf134829a2)">
     <!-- 44 -->
     <g transform="translate(1051.397103 1116.807752)scale(0.12 -0.12)">
      <use xlink:href="#DejaVuSans-52"/>
      <use x="63.623047" xlink:href="#DejaVuSans-52"/>
     </g>
    </g>
   </g>
   <g id="text_45">
    <g clip-path="url(#pcf134829a2)">
     <!-- 45 -->
     <g transform="translate(1097.502661 1073.708654)scale(0.12 -0.12)">
      <use xlink:href="#DejaVuSans-52"/>
      <use x="63.623047" xlink:href="#DejaVuSans-53"/>
     </g>
    </g>
   </g>
   <g id="text_46">
    <g clip-path="url(#pcf134829a2)">
     <!-- 46 -->
     <g transform="translate(1137.818221 1025.19713)scale(0.12 -0.12)">
      <use xlink:href="#DejaVuSans-52"/>
      <use x="63.623047" xlink:href="#DejaVuSans-54"/>
     </g>
    </g>
   </g>
   <g id="text_47">
    <g clip-path="url(#pcf134829a2)">
     <!-- 47 -->
     <g transform="translate(1171.708005 972.03824)scale(0.12 -0.12)">
      <use xlink:href="#DejaVuSans-52"/>
      <use x="63.623047" xlink:href="#DejaVuSans-55"/>
     </g>
    </g>
   </g>
   <g id="text_48">
    <g clip-path="url(#pcf134829a2)">
     <!-- 48 -->
     <g transform="translate(1198.637548 915.070314)scale(0.12 -0.12)">
      <use xlink:href="#DejaVuSans-52"/>
      <use x="63.623047" xlink:href="#DejaVuSans-56"/>
     </g>
    </g>
   </g>
   <g id="text_49">
    <g clip-path="url(#pcf134829a2)">
     <!-- 49 -->
     <g transform="translate(1218.18214 855.19177)scale(0.12 -0.12)">
      <use xlink:href="#DejaVuSans-52"/>
      <use x="63.623047" xlink:href="#DejaVuSans-57"/>
     </g>
    </g>
   </g>
   <g id="text_50">
    <g clip-path="url(#pcf134829a2)">
     <!-- 50 -->
     <g transform="translate(1230.033571 793.346947)scale(0.12 -0.12)">
      <use xlink:href="#DejaVuSans-53"/>
      <use x="63.623047" xlink:href="#DejaVuSans-48"/>
     </g>
    </g>
   </g>
  </g>
 </g>
 <defs>
  <clipPath id="pcf134829a2">
   <rect height="1108.8" width="1116" x="180" y="172.8"/>
  </clipPath>
 </defs>
</svg>
